<svg id="Layer_1" data-name="Layer 1" xmlns="http://www.w3.org/2000/svg" xmlns:xlink="http://www.w3.org/1999/xlink" viewBox="0 0 3045.28 3045.28"><defs><style>.cls-1{fill:url(#linear-gradient);}.cls-2{fill:#fff;}</style><linearGradient id="linear-gradient" x1="3489.64" y1="-85.36" x2="7906.64" y2="4331.64" gradientUnits="userSpaceOnUse"><stop offset="0" stop-color="#9a6ce5"/><stop offset="1" stop-color="#3c0a59"/></linearGradient></defs><title>navbar-logo</title><rect class="cls-1" x="3037.64" y="366.64" width="5321" height="3513"/><polygon class="cls-2" points="592.45 1228.95 112.54 1228.95 335.55 666.44 592.45 1228.95"/><path class="cls-2" d="M2065.74,1230,1604.25,62.48C2276.13,99.07,2827.61,588,2959.44,1230Z"/><path class="cls-2" d="M1813.31,1713.21H2977.64a1462,1462,0,0,1-394.33,826.2l-136-344.09H1964.13l247.47,626.09A1456.53,1456.53,0,0,1,1765,2972.93l-307.36-777.61-191-483.17L710.71,305.74a1459.77,1459.77,0,0,1,429.46-195l632.59,1602.45"/><path class="cls-2" d="M1281.82,2973C817,2896,426,2600.39,218,2195.32A1456.11,1456.11,0,0,1,68.58,1712.15H783.43l191,483.17Z"/></svg>