<svg id="Layer_1" data-name="Layer 1" xmlns="http://www.w3.org/2000/svg" viewBox="0 0 2048 2048"><defs><style>.cls-1{fill:#1a0426;}</style></defs><title>navbar-logo</title><polygon class="cls-1" points="379.9 819.09 47.52 819.09 201.98 429.49 379.9 819.09"/><path class="cls-1" d="M1400.29,819.83,1080.67,11.19C1546,36.54,1928,375.18,2019.26,819.83Z"/><path class="cls-1" d="M1225.46,1154.48h806.41a1012.41,1012.41,0,0,1-273.12,572.22l-94.19-238.31H1329.92L1501.31,1922A1008.49,1008.49,0,0,1,1192,2027L979.1,1488.39,846.83,1153.75l-385-974.08a1011,1011,0,0,1,297.44-135l438.12,1109.84"/><path class="cls-1" d="M857.35,2027c-321.92-53.33-592.73-258.07-736.79-538.61A1008.55,1008.55,0,0,1,17.07,1153.75h495.1l132.29,334.64Z"/></svg>