<svg xmlns="http://www.w3.org/2000/svg" viewBox="0 0 311.1 37.96"><defs><style>.cls-1{fill:#fff;}</style></defs><title>Asset 2</title><g id="Layer_2" data-name="Layer 2"><g id="Layer_1-2" data-name="Layer 1"><path class="cls-1" d="M37.51,18.37a59.71,59.71,0,0,1,1.08,7.4c.48,3.33.86,6.66,1.5,10,.35,1.78,2.07,2.34,5.06,2.18,6.27-.33,12.57-.36,18.87-.52,4.49-.11,9-.2,13.47-.33,1.77,0,3.53-.24,5.3-.28,17.13-.3,34.27-.54,51.39-.9q10.33-.23,20.64-.83c15.09-.89,30.15-2,45.25-2.81,12-.66,24-1.14,36-1.59,4.88-.18,9.88.31,14.21-1.76a10.11,10.11,0,0,1,3.44-.4c8.66-.3,17.32-.55,26-.85,1.64-.06,3.27-.28,4.91-.43,0-.27,0-.54.05-.81a20.13,20.13,0,0,0-3.5-.58c-7.45.07-14.9.3-22.36.33q-17.17.09-34.35,0c-2.12,0-4.24-.57-6.37-.58-5,0-10.26-2.63-14.89.71a4.33,4.33,0,0,1-2.61-.22,1.67,1.67,0,0,1-.82-1.61c.36-1.93,2.26-2.62,5.31-2.68,11-.2,22.06-.58,33.09-.81,5.77-.13,16.14-1.36,19.71-2.63l-9.57-.38c0-.24,0-.47,0-.72,3.64-.22,7.28-.57,10.93-.63,8.09-.12,16.18-.06,24.27-.16,1.89,0,4.36.32,5.12-1.69-3.78-.84-8.35,1.6-11.32-1.23,3.52-1.61,8.28.38,12.52-2.28-4.33,0-7.44,0-10.56,0s-6.33,0-9.47-.11c-2.85-.14-6.08.77-8.48-1.07a11.06,11.06,0,0,1,3.25-.33c1.53,0,3.09.14,4.58,0,6.58-.69,13.12-1.53,19.71-2.18,6-.59,12.1-1,18.17-1.47,3-.23,4.69-1,3.95-3.55-2.37.06-4.64.17-6.9.18s-5,.32-6.89-.27a24.51,24.51,0,0,0-7.84-1c-5.45.05-11-.66-16.38-.41A30,30,0,0,1,265,0c-40.49,3.47-81.61,3.66-122.42,5-23.5.74-46.93,1.72-70.44,2.3C59.5,7.56,45.93,7.71,33,9.13a15,15,0,0,1,1.48.57c-4,1.22-8,1-11.86,1-1.88.33-3.75.69-5.58,1.1,6.24.44,12.57-.09,18.59,1.28a33,33,0,0,1-6.39.62c-4.53-.05-9.06-.37-13.58-.32a28.22,28.22,0,0,1-4.18-.15l-.67.17c-1.84.55-3.47-.82-2.62-1.65a4.32,4.32,0,0,1-1-1.44L0,14.05c4.24,3.25,4.59,3.29,9.9,1.62a10.11,10.11,0,0,1,2.78-.46c6.28-.05,12.58-.1,18.86,0C35.64,15.23,36.81,15.8,37.51,18.37Zm140.82,5.07a2.62,2.62,0,0,0,0,.28h-3.5a2.62,2.62,0,0,1,0-.28Zm84.75-8.87c0-.23,0-.46,0-.69h8.08c0,.23,0,.46,0,.69Z"/></g></g></svg>