<?xml version="1.0" standalone="no"?>
<!DOCTYPE svg PUBLIC "-//W3C//DTD SVG 1.1//EN" "http://www.w3.org/Graphics/SVG/1.1/DTD/svg11.dtd" >
<svg xmlns="http://www.w3.org/2000/svg" xmlns:xlink="http://www.w3.org/1999/xlink" version="1.1">
<metadata>
Created by FontForge 20170731 at Wed Oct 23 22:22:55 2019
 By Aleksey,,,
Copyright (c) 2019 by Yasir Ekinci. All rights reserved.
</metadata>
<defs>
<font id="RonetDEMO" horiz-adv-x="144" >
  <font-face 
    font-family="Ronet DEMO"
    font-weight="400"
    font-stretch="normal"
    units-per-em="1000"
    panose-1="0 0 0 0 0 0 0 0 0 0"
    ascent="750"
    descent="-250"
    x-height="317"
    cap-height="728"
    bbox="-306 -268 1205 771"
    underline-thickness="50"
    underline-position="-175"
    unicode-range="U+000D-007A"
  />
<missing-glyph horiz-adv-x="500" 
 />
    <glyph glyph-name=".notdef" horiz-adv-x="500" 
 />
    <glyph glyph-name="uni0000" horiz-adv-x="0" 
 />
    <glyph glyph-name="uni0000" horiz-adv-x="0" 
 />
    <glyph glyph-name="uni000D" unicode="&#xd;" horiz-adv-x="250" 
 />
    <glyph glyph-name="uni0020" unicode=" " horiz-adv-x="260" 
 />
    <glyph glyph-name="uni0041" unicode="A" horiz-adv-x="643" 
d="M490 217q-27 -4 -39.5 -4.5t-14.5 -4.5q-2 -3 -9.5 -27.5t-15.5 -54t-15 -55.5t-9 -32q-6 -21 -11.5 -49t-10.5 -57t-8 -57t-3 -50v-26t5 -26q2 -5 4.5 -10.5t4.5 -10.5q-1 -5 -8 -5q-13 6 -17 17q-6 15 -7.5 34t-1.5 35q0 36 6.5 80t17 90t22.5 89.5t22 77.5q2 8 5 16.5
t4 16.5q-18 0 -36 -4q-9 -1 -23 -3t-29.5 -5t-29.5 -5.5t-23 -5.5q-6 -2 -9 -4t-8 -7q-20 -25 -35 -53.5t-29 -57.5q-22 -43 -44.5 -85.5t-47.5 -84.5q-10 -17 -19 -31q-4 -4 -6 -4q-6 0 -10.5 3.5t-4.5 10.5t3 13q5 13 11.5 24.5t12.5 22.5q23 40 46.5 79t46.5 78
q12 20 22.5 40.5t17.5 43.5h-9.5t-10.5 -2q-50 -13 -99 -27.5t-99 -29.5q-17 -5 -32.5 -11.5t-31.5 -11.5q-29 -10 -57.5 -20t-54.5 -24q-5 -3 -10 -5.5t-10 -5.5q-6 -4 -17.5 -13.5t-16.5 -9.5q-4 0 -6.5 3.5t-3.5 6.5q3 6 5 8.5t7 7.5q16 14 47 28t65.5 27t68.5 23.5
t57 17.5q14 4 26.5 8.5t25.5 8.5l58 18q17 5 33.5 8.5t33.5 7.5q10 2 22 4t20 6q14 27 29.5 61.5t28.5 70.5t22 71.5t9 64.5q0 9 -0.5 19.5t-3.5 18.5q-2 4 -3 7t-1 8q0 8 8 8t11 -4.5t5 -10.5q3 -12 3.5 -25t0.5 -25q0 -18 -3 -34.5t-8 -33.5q-10 -30 -21 -59.5t-23 -58.5
q-1 -2 -3.5 -8l-5 -12t-4.5 -11t-2 -6q7 3 11 10l8 14q45 71 88 141t82 144q11 22 23 44t25 45q2 4 7.5 13.5t12 19t13 17t10.5 7.5q9 0 14 -8q-4 -8 -8.5 -15t-9.5 -15l-6 -10l-6 -10q-4 -5 -8.5 -9t-8.5 -9q-6 -8 -9.5 -16.5t-8.5 -16.5q-34 -65 -69.5 -128t-75.5 -124
q-3 -4 -15 -23.5t-25.5 -41t-24 -39l-10.5 -17.5q18 0 33.5 2.5t32.5 6.5q20 4 38.5 7t38.5 6q2 3 3 6t3 7q26 78 52 155.5t53 155.5q11 29 20.5 58.5t18.5 58.5q2 6 4 11.5t4 10.5q3 6 5 7.5t7 4.5h1q10 -3 14 -10q-11 -26 -19.5 -49.5t-16.5 -46.5q-18 -50 -35.5 -99
t-34.5 -99q-8 -20 -15 -40.5t-14 -40.5q-6 -20 -11.5 -39.5t-12.5 -39.5l28 -5q17 2 37.5 4t37.5 3h12q11 0 22.5 -3t12.5 -14q0 -19 -15 -30q-11 -8 -24.5 -13.5t-25.5 -10.5q-36 -14 -65 -33q-4 -2 -16 -9t-16 -7q-8 0 -8 7t17 18t38.5 22t42.5 20l28 12l14 7t10 8t-12 4
t-15 1q-14 -1 -29 -1t-29 -2z" />
    <glyph glyph-name="uni0042" unicode="B" horiz-adv-x="599" 
d="M101 -235q-11 0 -22 7t-11 18q0 8 1 18.5t6 15.5l5 2l6 -4q2 -4 1 -7t-1 -6q0 -16 9.5 -19.5t20.5 -3.5h17q33 0 82 15t103 40.5t108.5 59.5t98 71.5t70.5 76t27 74.5q0 37 -33.5 62.5t-79.5 41.5t-93 23t-74 7q-11 0 -34 -2t-48 -5.5t-46.5 -8.5t-29.5 -12
q0 -16 -14 -56.5t-35.5 -91.5t-47 -106t-49.5 -100.5t-42.5 -75t-25.5 -29.5q-13 6 -13 13q0 17 10 49t25.5 71.5t35 83.5t38 84t34 72.5t24.5 50.5v2q-5 -3 -27 -17.5t-46.5 -31t-45 -30t-23.5 -13.5t-8 2.5t-5 7.5q2 6 7.5 10t10.5 9q17 21 34 35t36 25t39.5 20.5
t43.5 20.5q5 3 12.5 14t14.5 25t12.5 27t6.5 19q11 53 22.5 105t19.5 106q1 5 1.5 17.5t2 25t5 21.5t10.5 7q8 -2 8 -11q0 -18 -7 -53t-15 -71.5t-14.5 -67.5t-5.5 -40h2l1 3q14 23 28.5 47t28.5 47q22 36 52 78t66.5 78t79 60t89.5 24q14 0 27.5 -11t13.5 -26
q0 -40 -30.5 -87t-73.5 -92t-89.5 -82.5t-78.5 -60.5q-5 -3 -22 -14.5t-36 -24.5t-34 -23.5t-17 -12.5q34 10 69 13t70 3q31 0 78.5 -8.5t92.5 -26.5t77 -46t32 -67q0 -36 -22.5 -73t-55 -70.5t-69 -61.5t-65.5 -45q-34 -21 -74 -41t-82.5 -36.5t-85.5 -26.5t-84 -10z
M-13 -171q6 4 21.5 32t35 68.5t40.5 87.5t38.5 89.5t29 74t11.5 41.5q-4 -2 -14.5 -21.5t-24.5 -48t-29.5 -62.5t-29 -65t-24 -54.5t-13.5 -31.5q-11 -25 -19 -56t-22 -54zM578 664q0 11 -10 13t-18 2q-2 0 -7 -1t-9 -2q-43 -12 -78 -35.5t-64 -54t-54 -65.5t-48 -71
q-22 -34 -42.5 -68.5t-40.5 -69.5q-12 -19 -15 -47l8 5t17.5 11t18 12t10.5 7q25 18 59.5 42.5t71 54t73 62.5t65 67.5t46 69.5t17.5 68z" />
    <glyph glyph-name="uni0043" unicode="C" horiz-adv-x="973" 
d="M1038 655q-3 4 -8 5.5t-10 1.5q-45 0 -113.5 -23t-150.5 -62.5t-171.5 -93t-176.5 -115t-165.5 -127t-138.5 -129t-95 -122.5t-35 -107q0 -26 10 -45.5t26.5 -32t38 -18.5t45.5 -6q48 0 95 10.5t92 27t88.5 37.5t85.5 43q24 12 66 37.5t92 58t101.5 69.5t94 72.5t69 66.5
t26.5 52q0 8 -5 12.5t-12.5 7t-15 3t-13.5 0.5q-19 0 -51 -8t-69 -21t-74.5 -30.5t-68.5 -36.5t-51 -38t-22 -36q-2 -5 -7 -5h-3.5t-4.5 2l-2 4q-5 6 4 22t24 29q28 25 69.5 50t87.5 45t92.5 32.5t83.5 12.5q26 0 42.5 -10.5t16.5 -38.5q0 -33 -37 -75.5t-94.5 -88
t-128.5 -90.5t-139 -83t-125 -67t-87 -42q-22 -9 -49.5 -18t-56.5 -16t-58 -11t-55 -4q-27 0 -53 8.5t-46.5 25t-32.5 40t-12 53.5q0 50 36 111.5t97 128t141.5 134t170 130.5t182 118.5t177 96.5t156.5 64.5t119 23.5q12 0 23.5 -12t11.5 -24q0 -29 -13.5 -53t-30.5 -45
q-9 -10 -35.5 -32.5t-62 -49.5t-75.5 -55.5t-76 -52.5t-64 -39t-39 -15q-7 0 -10 9t-3 14q0 9 4 16q1 4 6 4q9 -1 13 -1h6q10 0 33.5 12.5t53.5 31.5t63 42.5t63 46t52.5 41t31.5 27.5q10 10 23 23.5t22.5 27.5t13.5 27t-3 22z" />
    <glyph glyph-name="uni0044" unicode="D" horiz-adv-x="639" 
d="M672 576q0 -52 -16.5 -118t-44 -136.5t-64.5 -142.5t-78.5 -136t-85 -117t-84.5 -87q-33 -27 -76 -43.5t-86 -16.5q-19 0 -38.5 6t-35.5 18t-27 28.5t-14 37.5q-2 14 -1 27t1 27l-1 8l-2 1q-7 -11 -20 -36.5t-28.5 -51.5t-31.5 -46.5t-29 -20.5q-10 0 -15.5 7t-5.5 16
q0 16 13 51.5t33 80.5t44.5 94.5t48 94.5t43.5 81t31 52q5 8 15 23t20 31.5t18.5 31t10.5 20.5q9 29 20 63.5t20 70t15.5 70.5t6.5 65l-7 8v4q0 5 7 8t11 3q6 0 11.5 -4.5t5.5 -11.5q0 -11 -4.5 -37t-11 -54.5t-13 -54.5t-10.5 -38q-1 -2 -3 -9t-4 -14.5t-4 -13.5t-2 -8
q19 17 35 39.5t33 41.5q25 29 60.5 63.5t75.5 64.5t82.5 50.5t82.5 20.5q50 0 74.5 -33t24.5 -78zM-91 -199l1 -1q28 31 59 82.5t59.5 109.5t51.5 114.5t36 97.5q2 5 6 16t8.5 22t7.5 21t3 13h-2q-5 -4 -20.5 -31t-36 -65.5t-43.5 -83.5t-44 -87t-36.5 -74.5t-21.5 -46.5
q-8 -20 -16 -43t-12 -44zM39 -115q0 -48 30 -68t72 -20q60 0 121 43.5t117.5 113t105.5 156.5t85.5 174t57.5 165t21 130q0 17 -3.5 33t-12 28.5t-21.5 20.5t-32 8q-53 0 -110 -35.5t-110 -86t-98 -105.5t-75 -94q-3 -4 -10 -23t-15 -41.5t-15 -43.5l-10 -30q-1 -2 -3 -8
t-4.5 -12.5t-4.5 -12t-2 -6.5h2q2 0 10.5 12.5t20.5 28t26.5 28t27.5 12.5q4 0 7 -3.5t5 -6.5l-5 -5q-19 -6 -40 -29t-41 -55.5t-37.5 -70.5t-30.5 -75t-21 -69.5t-8 -52.5z" />
    <glyph glyph-name="uni0045" unicode="E" horiz-adv-x="774" 
d="M303 426q11 12 34 37t53 55.5t63 62.5t63 58.5t54 43.5t35 17q3 0 5.5 -4t4.5 -7l-2 -4q-27 -29 -58.5 -49.5t-63.5 -46.5q-17 -14 -37.5 -31t-37.5 -34q-3 -3 -15.5 -16t-26 -28t-24 -27.5t-10.5 -15.5h2q7 0 39.5 13t74.5 28t87 28t78 13q5 0 14.5 -1t18.5 -3t16 -6.5
t7 -12.5q0 -6 -1.5 -7.5t-6.5 -1.5l-5 2q-7 2 -16.5 7.5t-26.5 5.5q-13 0 -39.5 -5.5t-59 -14t-67.5 -19.5t-66 -22.5t-53.5 -23t-30.5 -20.5q-32 -37 -66 -80t-59 -85h3q18 2 36 8.5t35 11.5q9 3 32.5 9t49 12t48 10.5t29.5 4.5q5 0 7.5 -3.5t2.5 -7.5q0 -2 -10 -5
t-23.5 -5.5t-25.5 -5t-17 -3.5q-40 -11 -90 -21.5t-90 -27.5q-8 -3 -13 -12t-9 -16q-16 -30 -35.5 -67.5t-36.5 -77t-28.5 -79t-11.5 -73.5q0 -36 24 -48t54 -12q69 0 139.5 23.5t138 60t128.5 82t111 88.5q11 9 24.5 22.5t27 28t24 30t15.5 28.5q-14 6 -15.5 8.5t-0.5 4.5
l1 4q2 4 6 6t8 2q7 0 12.5 -3t5.5 -11v-1q0 -18 -8 -35.5t-20 -33.5t-26 -30.5t-26 -26.5q-49 -49 -114 -97.5t-138 -86.5t-150 -62t-150 -24q-91 0 -91 88q0 31 11.5 71t29 81.5t37.5 80.5t38 67l1 4q-13 -5 -46.5 -18.5t-67.5 -31.5t-60.5 -38t-26.5 -37q2 -12 1.5 -15
t-2.5 -3h-5q-3 0 -5.5 3t-2.5 12q0 7 1.5 13t3.5 8q19 32 55.5 55.5t74 40.5t68 29t37.5 21q27 39 56.5 76.5t55.5 75.5q-8 -4 -23.5 -14t-33 -21t-34 -19.5t-26.5 -8.5q-5 0 -8 3l-1 2q-11 11 9 23.5t50.5 25.5t61.5 26t41 25z" />
    <glyph glyph-name="uni0046" unicode="F" horiz-adv-x="436" 
d="M-157 359q0 9 24.5 21.5t63 26.5t86.5 28.5t93.5 27t84 22t59.5 13.5q29 6 55 13.5t29 7.5q9 3 11 14.5t2.5 24t2 22t9.5 9.5q4 0 11 -0.5t9 -2.5q7 -1 17 15t20.5 34.5t20.5 34t16 13.5l8 -3l6 -6t3 -7q0 -3 -8 -16t-18 -27t-18 -26t-8 -14l1 -2h31q41 0 82 1t81 4
q26 2 52.5 11.5t49.5 10.5q40 1 81 14t79 20q16 2 32 4.5t31 6.5q22 5 53.5 13.5t64.5 16t63.5 13t50.5 5.5q14 0 22.5 -3t8.5 -18q0 -20 -38 -36.5t-96 -29.5t-127.5 -22t-132.5 -15t-110 -9t-61 -3q-6 0 -28.5 -4t-52 -10.5t-62.5 -14.5t-60.5 -15t-46 -12t-19.5 -7
q-5 -14 -9 -35t-9 -36q-6 -20 -12.5 -38t-14.5 -37l-14 -34q-1 -4 10 -4q2 0 5.5 0.5t5.5 0.5q14 2 26.5 3t25.5 3q7 1 12.5 3t10.5 2q7 0 7 -9l-6 -5q-4 -3 -17.5 -6.5t-30 -6t-32 -4.5t-23.5 -3q-5 -1 -8.5 -9t-5.5 -12q-20 -48 -48.5 -104t-62.5 -112.5t-71.5 -108
t-74.5 -88.5l-5 -1q-17 5 -17 22q0 25 10.5 62.5t26 77t32.5 76t29 60.5q2 4 12 20.5t20.5 34.5t19 33t8.5 16l-10 -2q-3 0 -13 -3.5t-22 -8t-22.5 -8.5t-14.5 -5q-11 -3 -14 -12t-10 -9q-6 4 -7.5 7t-1.5 6q0 4 -0.5 7t2.5 5q9 6 24.5 13.5t33.5 14.5t35.5 13t28.5 10
q5 2 20.5 23.5t34 48.5t35 52t22.5 33q12 17 25 36q1 0 2 3.5t0 4.5q-44 -9 -102 -23t-119 -31.5t-117.5 -37t-97.5 -37.5q10 -5 10.5 -6.5t2.5 -11.5l-3 -3q-8 -4 -22 -4q-6 0 -17 3.5t-11 16.5zM35 -103q0 -3 4 -1t9.5 6.5t11 10t9.5 10.5q30 36 60 81.5t58.5 94.5
t52.5 98.5t42 94.5l-22 -6q-11 -3 -22.5 -5.5t-24.5 -4.5q-10 -6 -27.5 -33t-37.5 -64.5t-40.5 -81t-37 -83.5t-26.5 -71.5t-9 -45.5zM233 306q10 0 27 4.5t26 6.5q2 0 11.5 23t20.5 51t19 54t7 32l-1 1q-27 -44 -56 -86l-58 -84zM416 555q-2 0 -4 1h-7q-8 0 -8 -2
q-2 -3 -5 -6.5t-7 -11.5q23 4 50 8t52 10q-18 0 -35.5 0.5t-35.5 0.5zM807 603l5 -2q14 0 44 2.5t68.5 7.5t80 11.5t78 14.5t62.5 17t33 19v2q-10 2 -16 2q-8 0 -35.5 -5t-65.5 -13t-80.5 -17t-79 -17t-63 -14.5t-31.5 -7.5z" />
    <glyph glyph-name="uni0047" unicode="G" horiz-adv-x="798" 
d="M121 -98q-28 0 -55 7t-48 22t-33.5 38t-12.5 55t9.5 70.5t24.5 77.5t33 75t35 62q39 60 95 122t121 116.5t135.5 98t139.5 66.5l21 6t29.5 8t30.5 7t25 3q5 0 7 -1q4 2 9 2q17 0 35 -4.5t33 -14t24.5 -24t9.5 -34.5q0 -15 -11.5 -37.5t-28 -44t-35.5 -36.5t-35 -15
q-14 0 -21 16l8 6h2q13 0 30 13.5t32 31.5t25.5 37t10.5 31q0 16 -6 26t-16 15.5t-22.5 7.5t-24.5 2q-63 0 -132 -25t-136.5 -67t-131.5 -98t-117.5 -117.5t-94 -125t-62.5 -121.5q-11 -29 -21.5 -65.5t-10.5 -67.5q0 -34 11.5 -54.5t31 -31t45.5 -13.5t54 -3
q50 0 100.5 16.5t99.5 42.5t93.5 57.5t80.5 62.5q13 11 32 27.5t26 30.5q18 38 36.5 70t38.5 61t43.5 56.5t53.5 57.5q18 18 38.5 33.5t39.5 32.5v2h-3q-1 0 -8.5 -2.5l-16.5 -5.5l-16.5 -5.5t-9.5 -3.5q-72 -24 -141.5 -59.5t-132.5 -75.5q-31 -17 -56 -39q-4 -4 -7 -4
q-6 0 -8 4t-2 9t4 7q44 33 111 72t140.5 72.5t146 55.5t126.5 22q10 0 22 -2.5t12 -17.5q0 -5 -13 -5q-7 0 -15 1t-11 1q-31 0 -54 -18q-27 -22 -50 -54t-45 -58q-42 -51 -83 -99t-88 -95q-14 -14 -28.5 -27.5t-22.5 -32.5q-13 -31 -27.5 -72.5t-26.5 -86t-20 -87.5t-8 -76
q0 -11 4.5 -17.5t4.5 -9.5l-9 -3q-12 12 -15.5 22t-3.5 27q0 18 7.5 59t19 86t23.5 84.5t21 54.5l-1 2q-1 0 -5.5 -4t-10.5 -8.5t-11 -9t-7 -6.5q-41 -33 -85 -63t-91.5 -53t-98.5 -37t-105 -14zM606 194q41 40 78 84t73 88q15 18 29.5 36.5t28.5 38.5v2q-4 -2 -9.5 -6.5
t-7.5 -6.5q-21 -19 -51 -48t-59.5 -62t-52.5 -66t-29 -60z" />
    <glyph glyph-name="uni0048" unicode="H" horiz-adv-x="760" 
d="M745 318q0 -23 -24 -48.5t-60.5 -53t-78.5 -58t-78.5 -62.5t-60.5 -66t-24 -70q0 -21 -14 -21q-6 0 -6 8.5v14.5q-5 -11 -5.5 -25.5t-0.5 -25.5q0 -8 0.5 -14.5t2.5 -12.5q1 1 6 10.5t7 12.5h6l5 -3l4 -11q-2 -13 -7.5 -26.5t-21.5 -13.5q-19 7 -22 24.5t-3 34.5
q0 47 9 99.5t22.5 105.5t29.5 104.5t29 96.5h-5q-12 0 -30.5 -6t-24.5 -17q-12 -20 -40 -66t-63 -103t-74 -118t-74 -111.5t-62.5 -83t-40.5 -32.5q-9 0 -14.5 6t-8 15t-3 18t-0.5 15q0 40 8 89t20 99t26 98.5t27 88.5l-7 1q-16 -7 -47.5 -18.5t-63 -25.5t-56.5 -29.5
t-28 -31.5q-1 -10 9 -10q5 0 12 1.5t14 1.5q3 0 4 -3t1 -5q0 -9 -5.5 -12t-13.5 -3q-4 0 -11 1t-13.5 3.5t-11.5 6t-5 9.5q0 13 11.5 26.5t28 25.5t33.5 20.5t29 12.5q2 3 19.5 11t39 17.5t41 17.5t25.5 11q7 11 21.5 48t31 80.5t31 84t21.5 59.5q7 18 12.5 42.5t15.5 40.5
q1 5 11 8q7 -2 12 -4t5 -11q0 -6 -3.5 -17.5t-8.5 -24.5t-10.5 -23.5t-10.5 -15.5q-25 -63 -48.5 -125.5t-47.5 -125.5v-2q3 0 17.5 4.5t31 10.5t31.5 11.5t21 7.5q8 3 32.5 9t52.5 13.5t50.5 14.5t25.5 11q6 8 15.5 23.5t19.5 33.5t19 35t14 27l2 6q3 6 16.5 28t29 48.5
t28.5 50t16 31.5q4 11 7 24t9 23l7 6q3 1 6.5 9t7 18.5t6.5 21t5 14.5q4 7 11 7q3 0 7.5 -2.5t7.5 -4.5q0 -16 -5.5 -33.5t-14 -34t-17 -32.5t-13.5 -30q-4 -12 -17.5 -48.5t-28.5 -78t-26.5 -77.5t-12.5 -47h4q33 0 68.5 7.5t70.5 7.5q12 0 29.5 -1.5t34 -7t28 -15
t11.5 -25.5zM377 298h-4q-6 0 -27 -5t-48.5 -13t-58 -18t-56 -19.5t-42.5 -17.5t-18 -13q-14 -47 -29 -96t-27 -98.5t-20 -100t-8 -100.5q0 -2 0.5 -5t2.5 -5l2 -3q8 3 35.5 38.5t63.5 87.5t76.5 112.5t74.5 114.5t57.5 93t25.5 48zM400 -9h1q17 30 33 56.5t42 51.5
q3 3 23 17t48 35t60 45.5t58.5 48t43 43t13.5 29.5q-3 9 -11.5 13.5t-19 6.5t-22 2.5t-19.5 0.5q-42 0 -78 -4.5l-76 -9.5q-7 -1 -16 -23t-18.5 -55.5t-19 -74t-17.5 -77t-14.5 -65.5t-10.5 -40zM520 501q-1 -1 -13 -21t-27.5 -47t-30.5 -54.5t-22 -41.5h3q3 0 9.5 1t13 3.5
t12.5 5.5t7 6q5 16 12.5 35.5l15 39t13.5 38.5t7 35z" />
    <glyph glyph-name="uni0049" unicode="I" horiz-adv-x="522" 
d="M-149 -233l-29 -1q-4 0 -10 4.5t-6 8.5q0 6 4.5 11.5t9.5 7.5q25 10 72.5 23.5t100 27t102.5 25.5t81 19l5 6q3 3 5 9t2 10q11 44 28.5 87.5t33.5 84.5q25 62 59.5 119.5t66.5 113.5q37 63 73.5 124.5t72.5 123.5q1 1 5 8l4 8l-2 2h-8q-11 0 -35 -4.5t-50 -11t-50 -13.5
t-36 -11v-9q1 -2 2.5 -2.5t-0.5 -2.5t-1.5 -2t-1.5 -2t-4 -2.5t-4 -0.5q-4 0 -10.5 1t-13 3t-11 5t-4.5 8q0 10 15.5 18t39 15t52.5 12.5t55.5 10t47.5 8t29 5.5q10 3 21.5 21t23 38.5t22 37.5t18.5 17q11 -1 16 -12v-1q0 -2 -8.5 -14t-19 -27t-19.5 -29t-11 -20l-2 -5
q17 4 47 11t63 14t64.5 12t50.5 5h6l3 -3q2 -4 2 -11q0 -6 -13 -10t-30 -6.5t-32.5 -4t-21.5 -2.5q-23 -4 -41.5 -7.5t-35.5 -7.5t-35 -7t-40 -6q-5 -3 -27 -37t-52 -84t-64 -109.5t-64.5 -113t-53 -94t-28.5 -53.5q-8 -16 -19.5 -43t-22.5 -56t-20 -56.5t-12 -45.5l4 -6
l6 -1q32 5 48 10t36 16q73 43 148 74h1q54 27 113.5 48t121.5 35.5t125 22.5t123 8q11 0 24 -0.5t24.5 -3t19.5 -7.5t8 -13q0 -15 -17.5 -26t-40.5 -18.5t-46.5 -13t-34.5 -8.5q-94 -23 -187.5 -41t-190.5 -38q-45 -9 -90 -21.5t-93 -19.5q-11 -2 -25.5 -11.5t-28.5 -22
t-26 -25.5t-19 -22q0 -1 -2.5 -1.5t-4.5 -0.5h-3l-6 8q1 9 5 14t9.5 9.5t13 10t16.5 14.5l15 15l-33 -8q-2 0 -6.5 -1t-8.5 -3l-4 -2q-5 -16 -14 -33t-2 -33l4 -5q5 -2 7 -8q0 -5 -3 -10t-8 -5q-10 0 -19 11q-1 4 -1 8v7q0 14 4.5 28.5t4.5 28.5q0 5 -4 5t-26.5 -4.5
t-53.5 -11.5t-66.5 -16t-67.5 -17.5t-55.5 -15.5t-30.5 -11q-7 -2 -7 -6q1 -2 2 -3q3 -5 3 -9q0 -2 -7 -5.5t-9 -3.5zM370 -63q56 13 111 24t111 22l11 2q16 4 48.5 10.5l72.5 14.5t83 17t80 18.5t64 19t34 18.5v1q-17 7 -37.5 8.5t-38.5 1.5q-64 0 -126.5 -11t-124 -29
t-121 -41.5t-116.5 -48.5q-4 -2 -11.5 -5.5t-15.5 -7.5t-14.5 -7.5t-9.5 -6.5z" />
    <glyph glyph-name="uni004A" unicode="J" horiz-adv-x="481" 
d="M46 -189q-18 0 -30 13.5t-12 31.5q0 44 22.5 102.5t59.5 122.5t83.5 130t95 126t94.5 110t81 82q7 7 18 16t22 19t20.5 19.5t13.5 16.5q6 11 8.5 20.5t3.5 22.5l-1 1q-28 -18 -71.5 -40.5t-95.5 -46t-108 -45.5t-109 -39t-100 -27.5t-79 -10.5q-12 0 -26.5 4.5
t-12.5 22.5q1 2 1.5 4t3.5 3q9 -8 16 -11t15 -3q25 0 73.5 11t107.5 29t122.5 41.5t118.5 48t96 48.5t55 44l2 2q7 7 14 10.5t15 11.5h3l5 -3l1 -7q-6 -17 -18.5 -33.5t-12.5 -37.5l6 4q3 1 9 1h8q6 0 11.5 -2t3.5 -7l-5 -10q-5 -11 -20 -16t-23 -15q-28 -89 -62 -180
t-75.5 -178.5t-92.5 -169t-114 -151.5q-12 -14 -28.5 -29t-34.5 -27.5t-38 -20.5t-40 -8zM504 560q-59 -48 -117.5 -110.5t-112 -131t-100.5 -140t-84 -137.5q-9 -16 -21 -39t-22.5 -48t-18 -48.5t-7.5 -41.5q0 -14 3.5 -26.5t22.5 -12.5q18 0 36.5 11.5t32.5 21.5
q57 43 109.5 115.5t97.5 155.5t81.5 167t61.5 151q11 27 22.5 55t15.5 58z" />
    <glyph glyph-name="uni004B" unicode="K" horiz-adv-x="428" 
d="M263 702q8 -3 9.5 -8.5t1.5 -11.5q0 -47 -8.5 -98.5t-21 -103t-28 -101.5t-29.5 -95l1 -1q8 2 33 13t52.5 25t51.5 27t31 18q36 30 69.5 62.5t69.5 62.5q22 18 52.5 42t64 48t66.5 44.5t59 30.5h4q5 0 7 -1t4 -3h5q2 2 5 4.5t7 2.5q1 0 3 -1t4 -1l4 -7v-7
q-57 -53 -116 -103t-125 -94q-21 -14 -47 -27.5t-52.5 -27t-50.5 -28t-41 -31.5q-24 -24 -47.5 -48.5t-45.5 -50.5q-14 -16 -27 -32t-29 -30v-2q36 -24 86 -52t104 -52t107 -40t96 -16q7 0 13.5 1.5t12.5 3.5l3 -2q0 -2 0.5 -3.5t0.5 -3.5q0 -10 -14 -12t-21 -2
q-42 0 -96.5 17t-110.5 42t-107.5 53.5t-87.5 50.5l-3 -1q-24 -22 -43 -48t-37 -52q-6 -9 -16 -29.5t-22 -46.5t-25.5 -53t-26.5 -50t-25.5 -37.5t-21.5 -14.5q-1 0 -3 1t-4 1l-5 10q1 19 16.5 49t36 61.5t41 60.5t32.5 47q6 9 14.5 26.5t16.5 37t14.5 38t9.5 28.5l-2 6
q-18 5 -35 11t-35 6q-3 0 -8 -1.5t-9 -1.5l-7 8q-3 7 12 15.5t35.5 17t40.5 15t29 9.5h2q6 5 15 30t19 60.5t20 77t18 79.5t14 67.5t7 41.5q2 17 2 35v36q0 4 3.5 6t7.5 2zM154 242l-2 1l-2 -1q-11 -5 -22.5 -8t-21.5 -11v-2q17 -6 34 -15q2 0 4.5 5t4.5 11t3.5 12t1.5 8z
M127 118v-3l1 1q2 2 8.5 9t13 15t12 15t5.5 9l-18 11q-2 -1 -5 -9t-6 -17.5t-6 -18t-5 -12.5zM306 313l-1 1q-32 -15 -66.5 -28t-62.5 -35q-3 -14 -7.5 -26.5t-9.5 -24.5l3 -5q5 -3 9 -7t9 -6l5 1q32 30 61.5 64t59.5 66zM417 400l1 -2q16 9 43 26t59 38t66 44.5t64 46
t51.5 42t28.5 32.5h-4q-52 -30 -102.5 -63t-96.5 -71q-28 -23 -53.5 -48.5t-56.5 -44.5zM-19 -136h1q17 24 29 50.5t30 49.5v4q-4 -4 -13 -18.5t-18.5 -31.5t-18 -32.5t-10.5 -21.5z" />
    <glyph glyph-name="uni004C" unicode="L" horiz-adv-x="482" 
d="M467 415v2h-3q-18 -18 -48.5 -49t-67.5 -67t-78 -73t-80 -66.5t-73 -48.5t-58 -19q-13 0 -20 10l-2 8l7 3q2 0 4 -1t4 -1q21 0 55.5 19.5t74.5 51t82.5 69.5t81.5 75t70 68.5t47 48.5q21 23 37.5 38.5t31.5 29.5t30.5 29.5t35.5 37.5q7 8 26.5 28.5t42 42t43.5 38
t31 16.5q5 0 9.5 -1.5t5.5 -5.5l2 -11q0 -3 -19.5 -21.5t-46.5 -43.5t-55.5 -52.5t-46.5 -48.5q-28 -33 -64 -75.5t-74 -90t-75 -99t-68 -102t-52.5 -99t-28.5 -90.5l5 -4q53 16 101.5 42t99.5 43q75 26 146 49t141.5 40t142.5 27t147 10q8 0 20.5 -1.5t25 -5t21.5 -8.5
t9 -13q-1 -19 -13 -29t-37.5 -17t-67.5 -12.5t-103 -15.5l-126 -21q-109 -17 -219 -41.5t-216 -53.5q-26 -8 -39.5 -17.5t-29.5 -31.5q-3 -5 -8.5 -13.5t-10.5 -8.5q-10 0 -12.5 6.5t-3.5 14t-3 14t-11 6.5q-10 0 -44.5 -10t-80.5 -26t-98 -35t-97 -37t-77.5 -32t-39.5 -20
q-9 -8 -18 -20t-23 -12q-15 0 -15 16q0 11 26 27.5t66.5 35t89.5 37t94.5 34.5t81.5 27t50 15q7 1 20 4t26.5 6.5t25.5 7.5t16 8q11 8 14 26t6 30q15 54 44.5 108t65.5 106.5t74.5 102t72.5 92.5zM1057 138q2 6 -5 9t-18 4.5t-24 1.5h-22q-76 -1 -162.5 -16.5t-168.5 -38
t-151.5 -48t-111.5 -46.5l-30 -15q15 5 34 10.5t39.5 10.5t40 9.5t34.5 7.5q105 20 208 43.5t209 37.5q17 2 38.5 6.5t41 9t33.5 9t15 5.5z" />
    <glyph glyph-name="uni004D" unicode="M" horiz-adv-x="724" 
d="M59 -90l2 -1q51 108 112.5 209t121.5 203q11 18 34 56t48 76.5t46 67.5t28 29q12 0 16 -9v-7q-23 -55 -47 -103.5t-43.5 -97.5t-32 -102t-12.5 -117q0 -5 3 -18t11 -13q23 0 50.5 34.5t57 86t60 111.5t59 111.5t54 86t44.5 34.5q13 0 24.5 -15.5t11.5 -29.5q0 -18 -3 -32
t-7.5 -27.5t-9.5 -27t-9 -30.5q-16 -64 -22 -129.5t-6 -131.5q0 -16 3.5 -48t11 -70t18 -77.5t25 -72t32.5 -53t39 -20.5q8 0 15.5 3.5t15.5 3.5q5 -3 5.5 -6.5t-0.5 -5.5q-7 -10 -13 -12t-17 -3h-4q-12 0 -22.5 6.5t-20.5 14.5q-32 24 -53.5 71t-34.5 101t-18.5 108
t-5.5 92t4.5 77.5t8.5 74.5q7 57 14.5 89.5t13.5 51.5t10 30.5t4 25.5q0 9 -3.5 17t-6.5 8q-10 0 -31.5 -35.5t-50 -88.5t-62 -115.5t-67 -115.5t-64 -88.5t-54.5 -35.5q-13 0 -21 6.5t-13 16.5t-7 21.5t-2 21.5q0 32 4 64t12 63q5 19 10 34.5t11 32t13.5 35.5t17.5 46l-1 1
q-5 -5 -8 -10.5t-7 -11.5q-34 -54 -68 -107t-65 -107q-48 -84 -95 -168.5t-79 -172.5q-2 -5 -5 -10.5t-10 -5.5t-12 6t-5 13q0 12 6.5 40t17 63.5t23.5 75t26 75t24 63.5t18 40v3l-4 -1q-9 -11 -24.5 -28.5t-33.5 -34.5t-36.5 -29t-32.5 -12q-7 0 -13.5 5t-6.5 13
q52 23 91 61.5t73 83.5q27 35 46.5 73.5t40.5 76.5q7 13 26 44.5t44.5 72t55 84.5t57.5 80.5t52.5 60t39.5 23.5q5 0 13.5 -2.5t8.5 -9.5q0 -8 -21 -41.5t-54 -79.5t-72 -99.5t-75.5 -102.5t-64.5 -87.5t-39 -54.5q-25 -39 -45 -84.5t-36.5 -93t-30 -95.5t-27.5 -92z
M475 692q-21 -20 -53 -58t-63 -81t-57 -84.5t-35 -68.5h2q56 70 108.5 142t97.5 150z" />
    <glyph glyph-name="uni004E" unicode="N" horiz-adv-x="679" 
d="M485 658q-4 -5 -8.5 -10t-9.5 -10q-14 -16 -26 -35t-22 -38q-12 -23 -22.5 -45t-21.5 -45q-24 -49 -48.5 -98t-47.5 -99q-17 -38 -30 -77.5t-26 -79.5q-23 -69 -53.5 -139.5t-72.5 -131.5q-5 -7 -13 -18.5t-17.5 -23t-19.5 -20t-19 -8.5q-7 0 -15.5 7t-8.5 14q0 12 15 45
t38.5 77t51.5 94t54.5 96.5t48 84t30.5 56.5q8 18 13 40q4 14 8 26t8 25q7 22 11.5 43.5t10.5 44.5q15 61 28.5 122t26.5 123q1 5 0.5 9t-0.5 9q0 7 1 10q-2 7 3.5 8.5t9.5 1.5q5 0 8.5 -4.5t3.5 -9.5q0 -16 -4.5 -31t-7.5 -30q-10 -47 -19 -93t-21 -93q-5 -19 -12 -40
t-8 -41q5 5 18.5 33t29.5 62.5t31 66.5t22 44q3 6 12 21.5t20 32t21.5 29t17.5 12.5q4 0 7 -1.5t7 -1.5q2 11 12 11q5 0 9 -3t7 -6v-1q0 -13 -4.5 -27.5t-7.5 -26.5l-16 -66l-16 -66q-21 -94 -47.5 -184.5t-49.5 -183.5q-15 -62 -28.5 -124.5t-13.5 -125.5q0 -5 1.5 -14
t9.5 -8q23 6 50 39t55.5 81t56 105t51 111t40.5 98.5t24 68.5q20 62 35 122.5t15 126.5q0 22 -5 43.5t-13 42.5l5.5 5.5t6.5 2.5q9 0 14.5 -13.5t9 -30.5t5 -34t1.5 -23q0 -55 -12 -108.5t-28 -106.5q-10 -32 -27.5 -81t-41 -105t-51 -114.5t-57 -109t-59.5 -88.5t-58 -53
q-2 -1 -5 -2t-6 -1q-12 0 -20 6.5t-13 16t-7 20.5t-2 20q0 39 8.5 88.5t21.5 101t27 101.5t24 89q23 85 44 169t41 169q2 11 7 27t4 27zM203 138q-35 -65 -71 -128.5t-71 -129.5q-9 -17 -17.5 -35t-14.5 -37l1 -1q14 7 30.5 30t34 54.5t34.5 67.5t31.5 70.5t25.5 63.5t17 45
z" />
    <glyph glyph-name="uni004F" unicode="O" horiz-adv-x="670" 
d="M1 -14v16q-1 61 21 126.5t60 131t88.5 128.5t105 118.5t110 100.5t104.5 75q11 7 28.5 16.5t37 18.5t38 15t32.5 6q16 0 28 -7t20 -18.5t11.5 -25.5t2.5 -28q-1 -21 -4.5 -36.5t-10 -31.5t-17.5 -34.5t-28 -45.5l5 -12q17 -32 18.5 -60t1.5 -63q0 -44 -10.5 -81.5
t-32.5 -74.5q-20 -35 -53.5 -76t-74.5 -82.5t-88.5 -79.5t-96 -67.5t-96 -47.5t-90.5 -18q-27 0 -47.5 12.5t-34.5 32t-21 44t-7 48.5zM622 482l-6 14q-20 -22 -36.5 -39.5t-33.5 -34.5q-11 -11 -35 -32.5t-55 -46.5t-65.5 -51.5t-66 -48t-57 -35t-39.5 -13.5q-11 0 -26 5
q-3 1 -4 6l5 7h4q4 0 6 -0.5t4 -0.5q17 0 48.5 18t69.5 46.5t78.5 63t77 68t65 61t40.5 41.5l8 9q-8 11 -20 22.5t-29 13.5h-4q-13 0 -25 -8t-21 -17t-15.5 -16t-8.5 -5l-1 1q-1 2 5 11t17 19t24.5 18.5t25.5 8.5q19 0 34.5 -10.5t28.5 -23.5l3 4q20 32 36 65t16 71
q0 16 -9.5 32t-27.5 16q-13 0 -29.5 -5.5t-33.5 -13t-32.5 -16t-26.5 -14.5q-51 -31 -107.5 -76.5t-111.5 -101.5t-104.5 -119t-87 -129.5t-60 -133.5t-22.5 -130q0 -22 5 -42.5t16 -36t28 -25t42 -9.5q42 0 90.5 19t99 50.5t99.5 72.5t90.5 85t73 87.5t47.5 80.5
q12 29 19 60.5t7 62.5q0 24 -3 53t-10 42z" />
    <glyph glyph-name="uni0050" unicode="P" horiz-adv-x="685" 
d="M241 298l4 1q5 3 14.5 15.5t20.5 27.5t21.5 29t16.5 21q36 42 75.5 89.5t84 91t94 78t105.5 50.5q10 2 19.5 5t20.5 3q31 0 52.5 -13.5t21.5 -47.5q0 -12 -3.5 -27.5t-8 -31.5t-10 -31t-9.5 -26q-16 -41 -43 -97t-62.5 -117t-77.5 -120.5t-88.5 -106.5t-95.5 -76t-97 -29
q-42 0 -68.5 28.5t-26.5 69.5q0 14 9.5 44.5t25 67.5t35.5 76.5t40.5 71.5t40.5 53t35 21q3 0 5.5 -1.5t5.5 -2.5l1 -5l-2 -7q-24 -18 -53.5 -60.5t-55.5 -92.5t-43.5 -98.5t-17.5 -78.5q0 -29 16.5 -46t46.5 -17q47 0 101 36.5t106.5 94.5t101 131t86 145t59.5 137t22 108
q0 19 -13 25t-30 6q-38 0 -84 -25t-94 -65t-96 -90.5t-90.5 -101t-77 -96t-55.5 -76.5q-4 -6 -9 -18.5t-10.5 -27.5t-10 -28.5t-7.5 -21.5q-30 -81 -68.5 -163t-95.5 -148q-3 -4 -9 -11t-13 -14t-14 -12t-11 -5q-8 0 -16 5.5t-8 13.5q0 11 11 36t28 57t37.5 67.5t40.5 68
t36 59t23 39.5q18 31 44 62t37 65q17 51 32 105t25 108q1 8 4.5 26.5t6.5 39t5.5 38t2.5 22.5q-2 4 -7 9q-3 2 -3 6q7 5 11 5.5t8 0.5q8 0 10 -5.5t4 -10.5q-5 -24 -12 -68.5t-16 -92t-19.5 -88.5t-21.5 -59zM-17 -177q21 11 47.5 50.5t52 87t47 93.5t30.5 70q0 1 2 6
t4.5 10t4 10t1.5 6l-1 2q-16 -25 -29.5 -47.5t-27.5 -44.5q-12 -20 -32 -53t-39.5 -69t-36.5 -69t-23 -52z" />
    <glyph glyph-name="uni0051" unicode="Q" horiz-adv-x="614" 
d="M-31 21q0 47 30 120.5t79.5 156.5t113.5 167t132 152t134.5 110.5t120.5 42.5q33 0 54.5 -10.5t34 -29.5t17.5 -43.5t5 -53.5q0 -38 -18 -90t-47 -110t-65 -118.5t-73.5 -116t-72 -102t-59.5 -77.5q-27 -33 -54.5 -64.5t-55.5 -64.5q10 1 38 9t60.5 18t61.5 19t42 13
q98 29 203 47.5t208 18.5q7 0 24 -0.5t34.5 -3t31 -8.5t13.5 -17l-5 -4h-2q-18 8 -38 10.5t-39 2.5q-55 0 -109 -5.5t-108 -13.5q-25 -4 -65.5 -12t-88.5 -19.5t-99 -25.5t-95.5 -29t-79.5 -31t-50 -30q-6 -6 -18 -17.5t-25 -22.5t-26 -19.5t-21 -8.5q-9 0 -13 7.5t-4 15.5
q0 12 13 24t31 23t35.5 19.5t26.5 13.5q16 9 41.5 34.5t52.5 56t51.5 60t36.5 45.5q24 31 55.5 76t66 97t68 108t59.5 110t42.5 103t16.5 86q0 20 -4 39.5t-13.5 34.5t-25 24t-39.5 9q-54 0 -120 -40t-132.5 -104.5t-129.5 -145t-112 -161.5t-78.5 -155t-29.5 -125
q0 -57 55 -61h8q37 0 76.5 22t78.5 57.5t75 80.5t65.5 90.5t49.5 87.5t27 72l5 3q3 0 8 -2.5t5 -6.5q0 -10 -4.5 -24t-10.5 -28.5t-13 -28t-12 -23.5q-23 -42 -61 -97.5t-85.5 -105t-101 -84t-106.5 -34.5q-37 0 -57 26t-20 61z" />
    <glyph glyph-name="uni0052" unicode="R" horiz-adv-x="672" 
d="M304 445q4 -2 9 -2.5t5 -7.5l-85 -154q-5 -10 -14 -22.5t-10 -14.5l-9 -12q54 15 110.5 28t109.5 30q28 9 87.5 30.5t132.5 51.5t151 66t141.5 73.5t104.5 74t41 67.5q0 27 -25.5 42.5t-60 23t-69 9.5t-53.5 2q-60 0 -129.5 -12t-140.5 -31t-138.5 -43.5t-122.5 -49.5
q-5 -2 -19 -8.5t-30 -14t-29 -14t-15 -9.5q0 -5 4.5 -7.5t4.5 -10.5q0 -5 -2 -9.5t-6 -4.5h-1q-8 0 -11.5 7t-11.5 7q-12 0 -31.5 -10t-42.5 -24.5t-46.5 -31.5t-43 -31.5t-32.5 -24.5t-15 -9q-10 2 -8 8q3 11 20.5 28t39.5 34t43.5 31.5t32.5 20.5q20 12 41.5 17t40.5 16
q65 36 147 71t169 62.5t173.5 45t160.5 17.5q23 0 61.5 -3t76 -12.5t65 -28.5t27.5 -52q0 -34 -39.5 -72.5t-101.5 -77t-137.5 -75t-147.5 -67t-131.5 -53t-89.5 -32.5q-12 -4 -44 -12.5t-67 -17.5t-63.5 -17.5t-33.5 -11.5l-1 -1q6 -6 28 -16t48 -20t49.5 -18.5t32.5 -13.5
q5 -2 16 -6t22.5 -8t22 -8t15.5 -7q20 -10 63.5 -23t92.5 -24.5t95 -19.5t73 -8q8 0 15 -0.5t9 -3.5l4 -4q5 -5 0 -11.5t-20 -6.5q-36 0 -79.5 7.5t-88.5 19.5t-87.5 25.5t-77.5 25.5q-24 8 -67 25t-89.5 34t-87.5 30t-59 13q-6 0 -9 -6t-6 -11q-37 -61 -73 -117t-72 -121
q-21 -38 -46 -80t-42 -80q-1 -2 -4 -6.5t-8 -4.5q-7 3 -12 7t-1 11q17 30 41 73.5t47.5 86.5t43 78t27.5 46q5 8 14 21.5t18 28.5t16.5 28.5t10.5 20.5l-2 4l-4 2q-3 0 -13 -3.5t-21 -7t-19.5 -7t-10.5 -3.5q-13 0 -13 10q0 7 5 11t10 6q25 12 51.5 28.5t54.5 20.5
q14 3 33.5 31.5t39 68t36.5 82.5t24 74q1 4 1.5 13.5t2 20t4 18.5t5.5 8q6 0 14 -3.5t8 -10.5q0 -8 -2.5 -20.5t-6.5 -25.5t-8 -25t-6 -21z" />
    <glyph glyph-name="uni0053" unicode="S" horiz-adv-x="877" 
d="M122 -238q-64 0 -96.5 37t-32.5 100q0 56 27 110t67.5 103.5t87.5 93t88 77.5q18 15 22 19q-8 7 -12.5 14t-4.5 18q0 5 2.5 11.5t6.5 13.5q5 10 11.5 19t11.5 16l3 4h-3q-8 0 -15 -2.5t-15 -4.5q-17 -7 -30 -7q-4 0 -12.5 2t-8.5 9q0 9 6 10q12 4 25 7t26 5l26 6t25 7
q7 3 19.5 12t26 20t25 21t17.5 16q17 17 46.5 40.5t65 48.5t73.5 50t72 45t60 32t37 12q26 0 26 -26v-2q-1 -16 -18.5 -35t-42.5 -38.5t-52.5 -37.5t-50.5 -32q-11 -8 -20.5 -13t-14.5 -10q-8 -5 -22.5 -14t-22.5 -12q-6 -3 -16 -8.5t-15 -9.5q-13 -8 -31.5 -17t-38.5 -19
q-10 -5 -19.5 -9.5t-20.5 -9.5q-10 -5 -28 -11q-15 -5 -30.5 -11t-20.5 -13q-4 -4 -11.5 -13t-14.5 -19t-12.5 -19.5t-5.5 -15.5q0 -8 8 -10t14 -2t10 4q81 52 160.5 97.5t171.5 72.5q6 2 12 2q5 0 10.5 -2t5.5 -9q0 -11 -13 -16.5t-23 -7.5l-4 -1q-71 -21 -138.5 -56.5
t-130.5 -75.5l-1 -1l2 -2q62 11 125 20.5t126 9.5q22 0 47 -1.5t50 -6t47 -14t38 -26.5l13 -13t12.5 -16.5t8.5 -23.5t0 -34q-4 -29 -24 -59.5t-49.5 -59.5t-65.5 -56t-71 -50t-66.5 -42t-52.5 -32q-35 -21 -84.5 -48.5t-103 -52t-106 -41.5t-93.5 -17zM102 97
q-15 -17 -31 -42t-29.5 -53.5t-22 -57t-8.5 -51.5q0 -51 30.5 -79t80.5 -28q55 0 109 20.5t102 45.5q25 13 70.5 38t99.5 57t109.5 69.5t101 75t74.5 73t29 63.5q0 32 -22 52.5t-53.5 32.5t-65.5 16.5t-58 4.5q-33 0 -69.5 -3t-74 -8.5t-74.5 -12t-70 -13.5q-16 -4 -41 -22
t-51 -41.5t-51.5 -48.5t-43.5 -43q-5 -4 -8.5 -8t-6.5 -7q-6 -5 -11.5 -11.5t-10.5 -12.5zM381 446l7 3q19 8 52.5 24.5t73 38.5t81.5 47t78 50t63 48t36 41l-4 6q-11 0 -41.5 -16.5t-70.5 -42.5t-84.5 -57t-84 -60t-68.5 -51.5t-38 -30.5z" />
    <glyph glyph-name="uni0054" unicode="T" horiz-adv-x="301" 
d="M63 -195h-9q-8 0 -15 7t-7 15q0 18 5 34t12 33q2 5 20 51.5t43.5 113.5t54.5 144.5t54 145t41.5 114.5t17.5 54l-1 3q-33 -6 -88.5 -24t-113.5 -41.5t-108.5 -49.5t-73.5 -48l-7 -2l-6 7q0 16 30 35.5t74 39t96 38t96.5 33.5t74.5 25t31 13q2 5 2.5 14t0.5 18.5v19v14.5
q0 11 -1.5 22t-3.5 22l-5 5l-9 6q2 6 6.5 7.5t9.5 1.5q10 0 15 -12.5t6.5 -29t1 -32t-0.5 -22.5l1 -2q2 2 5.5 7t7.5 11t6.5 10.5t1.5 5.5l-4 2q-5 4 -10.5 8.5t-0.5 9.5l4.5 4.5t2.5 1.5h2q2 0 3.5 -0.5l4.5 -1.5l8 -5l2 3q2 4 7.5 12t12.5 16t13.5 14t10.5 6q7 0 12 -5
l1 -6l-3 -8l-5 -3q-10 -2 -16 -11.5t-11 -17.5l-2 -5l13 -3q12 -2 29 -2.5t28 -0.5q62 0 120.5 3.5t118.5 15.5q45 9 90.5 20.5t91.5 22.5t92.5 18.5t92.5 7.5q7 0 14 -2t7 -11q0 -13 -24.5 -23.5t-56 -18t-62 -11.5t-41.5 -6q-58 -7 -116.5 -10t-115.5 -14
q-28 -5 -73.5 -14t-93.5 -20t-91 -23t-67 -23q-6 -3 -9.5 -14t-6.5 -24.5t-4.5 -26.5t-2.5 -19q-4 -28 -16.5 -86.5t-30.5 -130t-40.5 -147t-46.5 -137.5t-48.5 -102t-47.5 -40zM266 419q-10 -20 -16 -42t-14 -44q-28 -81 -56.5 -161.5t-60.5 -160.5q-18 -44 -37.5 -89
t-27.5 -93q11 0 16.5 6t10.5 13q39 54 66.5 120t47.5 136.5t35 141.5t30 134q2 11 4 20t2 19zM515 606l2 2q-22 0 -43.5 -2.5t-43.5 -2.5h-33q-12 0 -24 1t-23 4q-2 -2 -7 -9.5t-9.5 -16t-8.5 -16t-4 -10.5l1 -2q19 3 35.5 9t33.5 11q31 8 62 15.5t62 16.5zM1013 686h-2
q-26 0 -51.5 -4.5t-51 -10.5t-50.5 -12.5t-51 -9.5l-2 -1h3q14 0 44 3.5t63 9.5t61 12.5t37 12.5z" />
    <glyph glyph-name="uni0055" unicode="U" horiz-adv-x="625" 
d="M81 228q-1 0 -13 -9.5t-28.5 -21.5t-35 -21.5t-33.5 -9.5h-6q-13 4 -13 13t8 9q22 0 42.5 9.5t39 23.5t35.5 31t31 32q13 13 21 30.5t17 32.5q10 15 30 48t45.5 74t54 84t55.5 79t49 59t35 23q7 0 13.5 -4.5t6.5 -12.5q0 -11 -15 -38t-38.5 -62t-51.5 -73.5t-54.5 -73.5
t-48 -62.5t-30.5 -38.5q-15 -17 -33.5 -35.5t-29.5 -38.5q-22 -39 -42.5 -83t-36.5 -90.5t-25 -93.5t-9 -92q0 -12 2 -26t7 -26t14.5 -20t24.5 -8q23 0 46 8.5t45 22t41.5 29.5t35.5 30q53 46 104 107.5t97.5 129t86.5 137.5t70 133q14 29 28 57t30 57q5 9 16.5 34
t24.5 52.5t23.5 49.5t11.5 23l3 2q3 3 8 3q8 0 17 -7.5t4 -15.5q-25 -46 -56 -116.5t-62.5 -152.5t-61.5 -170.5t-53.5 -172t-37.5 -156t-14 -122.5q0 -7 4.5 -12t6.5 -11q-3 -8 -9 -14h-3q-10 0 -14 6.5t-5 15.5t-0.5 18t0.5 14q0 54 11.5 117t29.5 127t39 125.5t40 112.5
q3 8 10 28.5t14.5 43t14.5 41.5t10 23l-2 1l-3 -3q-47 -79 -87.5 -151.5t-85 -140.5t-98 -132t-125.5 -125q-13 -11 -30.5 -23t-37 -22t-39 -16t-36.5 -6q-25 0 -40.5 11t-24.5 28.5t-12 38t-3 39.5q0 63 17 123t40 117q5 12 10 23l10 22l3 9v2zM188 368q59 73 113 149.5
t101 157.5v2l-2 -1q-10 -10 -30 -35.5t-43.5 -59t-48.5 -69.5t-45 -67t-33 -52t-12 -25z" />
    <glyph glyph-name="uni0056" unicode="V" horiz-adv-x="518" 
d="M7 286l1 3l6 3q11 1 20 13t16 21q27 35 51.5 71.5t49.5 75.5q5 9 16 39t23 65.5t23 69t17 48.5q2 6 7 18.5t11.5 25.5t13.5 22.5t13 9.5q2 0 5 -1.5t5 -3.5q1 -25 -11.5 -64.5t-29.5 -81t-35 -79.5t-29 -59q-8 -15 -12.5 -31t-9.5 -31q-19 -61 -38.5 -123.5t-35 -126
t-25 -127.5t-9.5 -129q0 -10 1 -28.5t4.5 -36.5t11.5 -31t23 -13q5 0 13 4.5t16 11t15 13t11 11.5q57 66 117.5 150.5t117.5 174.5t108.5 180.5t91.5 168.5q3 6 12.5 26t20 41.5t20.5 38t15 16.5q14 0 14 -7v-3q0 -19 -7 -30q-4 -7 -8.5 -11t-7.5 -10q-29 -58 -56 -113
t-59 -111q-13 -23 -43 -74t-69.5 -113.5t-85 -129t-89.5 -122t-82.5 -92t-63.5 -37.5q-19 0 -30.5 13.5t-18 32t-9 39t-2.5 34.5q0 96 18.5 195t47.5 190l32 106q-7 -9 -21 -29.5t-30 -41.5t-31.5 -36.5t-25.5 -15.5q-5 0 -9.5 3t-4.5 8z" />
    <glyph glyph-name="uni0057" unicode="W" horiz-adv-x="756" 
d="M680 262q0 81 -15 157t-42 151q-10 27 -20.5 53t-18.5 53h-1q-2 -5 -1.5 -9t-3.5 -9t-8 -5q-5 0 -6 3t-1 7q1 4 1 14q0 11 -0.5 20.5t-4.5 18.5q1 10 5 10q11 0 25 -24.5t27.5 -57t24 -63t14.5 -41.5q27 -75 37.5 -152.5t10.5 -156.5q0 -29 -7.5 -74t-21.5 -94.5t-35 -99
t-47.5 -89t-59 -64.5t-69.5 -25q-22 0 -37.5 8t-32.5 20q-26 19 -44 44.5t-28.5 54.5t-15 60t-4.5 62q0 23 2.5 46.5t2.5 47.5l-2 2q-6 -5 -11 -15.5t-11 -18.5q-17 -21 -39 -51.5t-47.5 -58t-54.5 -47.5t-60 -20q-21 0 -31.5 14t-14 33.5t-3.5 40.5v34q0 34 5.5 66t5.5 64
l-1 1v-1q-3 -5 -11.5 -17.5t-18.5 -25t-19.5 -22.5t-15.5 -10q-10 0 -11.5 6t-1.5 13q0 5 0.5 17t6.5 14q8 0 10 -9l4 -9q8 -1 21.5 23t29 59.5t30.5 75t26 70.5q7 19 21 59.5t31.5 84t35.5 80.5t32 49q8 6 14 6q10 0 10 -15q0 -11 -8 -37t-20.5 -59t-27.5 -70.5
t-29.5 -71.5t-26.5 -61.5t-18 -41.5q-8 -19 -19 -38.5t-16 -40.5q-20 -89 -20 -178v-22.5t2.5 -26t9 -21.5t19.5 -9q31 0 65 28.5t65.5 68t57.5 81t39 67.5q11 21 20.5 58t18.5 76t17.5 72.5t18.5 48.5l2 1q6 -1 11 -4t5 -11q0 -12 -4.5 -35t-11 -48.5t-13 -49t-10.5 -36.5
q-8 -26 -19 -50.5t-15 -50.5q-5 -29 -4 -59t1 -59q0 -66 19 -120t70 -100q8 -7 20 -11.5t22 -4.5q19 0 36.5 8.5t31.5 21.5q35 31 63.5 82.5t48.5 111.5t31.5 121t11.5 112zM205 580q-3 -5 -12.5 -24t-21 -46t-24.5 -58t-24 -59t-19.5 -49t-10.5 -29l1 -3h2q10 19 26.5 55.5
t33 77t30 77.5t19.5 58z" />
    <glyph glyph-name="uni0058" unicode="X" horiz-adv-x="281" 
d="M110 235q0 40 1 75.5t4.5 70t10.5 70t18 74.5l7.5 22.5t9.5 28t8.5 27t3.5 20.5q0 5 4.5 9.5t8.5 6.5h3q5 0 9 -2l5 -8q-33 -85 -53.5 -167t-20.5 -173v-17.5t2 -17.5l15 24q34 55 68.5 111t71.5 109.5t78 104t88 95.5q10 10 20 16t22 12l7 -3l10 -11v-1q0 -8 -7 -23.5
t-12 -23.5l-2 -1q-5 5 -5.5 11t-0.5 13l-1 2q-50 -41 -96.5 -96.5t-89.5 -116.5t-81 -123.5t-70 -119.5l-1 -2q-3 -4 -3 -11q0 -18 8.5 -46.5t23.5 -55t35.5 -45.5t43.5 -19q22 0 39.5 7.5t30.5 17.5t21.5 18.5t12.5 10.5q3 2 4.5 2.5t4.5 0.5h4q-20 -29 -49.5 -51.5
t-68.5 -23.5q-25 0 -46 14.5t-37.5 38t-28 52.5t-18.5 56q-8 -14 -16.5 -28.5t-16.5 -29.5q-14 -25 -36 -67t-43.5 -90.5t-38.5 -96.5t-23 -85q-1 -5 1 -11t2 -11q-1 0 -1.5 -0.5t-1.5 -0.5q-8 0 -14 12t-1 36q15 74 44.5 143.5t59 125.5t51.5 93.5t22 47.5z" />
    <glyph glyph-name="uni0059" unicode="Y" horiz-adv-x="492" 
d="M595 735q-6 -25 -11 -46q-4 -19 -8 -34t-5 -19q-10 -33 -20.5 -68.5t-21 -69t-20 -62t-17.5 -47.5q-13 -30 -25 -57t-25.5 -54.5t-29 -56t-34.5 -60.5q-13 -23 -38 -61t-56.5 -82t-66.5 -88.5t-69 -80.5t-63.5 -59t-50.5 -23q-16 0 -24.5 11t-10.5 25q-3 22 7.5 55
t28.5 72t41.5 79.5t46.5 78.5t44 69t33 50q19 29 45 62t54.5 66t58.5 62.5t56 50.5q23 20 48.5 40t46.5 42q3 4 12 29.5t19 55.5t17 55.5t7 30.5h-1q-16 -26 -50 -66.5t-77 -86.5t-90.5 -93t-91.5 -84.5t-79.5 -61t-54.5 -23.5q-11 0 -18 5.5t-10.5 13.5t-5 17.5t-1.5 18.5
t3 23.5t6.5 29t6 26t2.5 13.5q-6 -2 -10.5 -7t-10 -10t-11.5 -9t-14 -4q-6 2 -8 4t-4 3l1 3q21 12 37.5 24.5t32.5 30.5q13 14 23 35.5t20 38.5q7 11 24 37.5t37 54.5t39.5 49t31.5 21q5 0 8.5 -5t3.5 -10q0 -7 -16 -32.5t-37 -55t-40.5 -55t-27.5 -33.5q-4 -4 -11.5 -12
t-15.5 -17t-14.5 -17.5t-8.5 -13.5q-10 -28 -19.5 -57.5t-9.5 -60.5q0 -7 3.5 -16t14.5 -9q18 0 50.5 22t72 56t81.5 76t79.5 82.5t66.5 75t42 53.5q22 31 40.5 53t26.5 22h6q7 0 8 -4t1 -11zM13 -201q0 -9 3 -12t11 -3q26 0 58 35q60 63 121 140.5t114.5 160t96 164
t65.5 151.5q1 3 3.5 10t5.5 14.5t5 14t2 8.5l4 9q-13 -6 -29.5 -22t-27.5 -26q-43 -38 -79 -74t-74 -81q-17 -21 -44.5 -58t-58.5 -83t-62.5 -97t-56.5 -98.5t-41 -87.5t-16 -65zM281 678l1 1q-9 -5 -26.5 -26.5t-36.5 -47.5t-35.5 -50.5t-23.5 -36.5v-3h1q6 6 24.5 30
t39 51.5t37.5 51.5t19 30z" />
    <glyph glyph-name="uni005A" unicode="Z" horiz-adv-x="690" 
d="M-13 -219q1 2 21 17.5t50 38t66.5 50t70.5 53.5t61 48.5t39 35.5l-2 2q-13 11 -25.5 20.5t-22.5 21t-16 25.5t-6 33q0 37 30.5 62t72.5 40t86 21.5t72 6.5h7.5t8.5 -1l10 -1q11 -2 17.5 -2.5t17.5 -0.5q4 0 29 22.5t60.5 57.5t75 77t73.5 81.5t56.5 71.5t22.5 47
q0 18 -11 29.5t-26.5 18.5t-33.5 10t-32 3t-31 -3t-34.5 -7.5t-34.5 -10t-30 -10.5q-44 -20 -85.5 -43.5t-82.5 -48.5q-12 -7 -36 -24.5t-53 -40.5t-59.5 -49t-55.5 -51.5t-41 -47.5t-16 -36q0 -6 5.5 -9.5t13 -5t15.5 -2t13 -0.5q24 0 51.5 10.5t55.5 25.5t53 32.5t43 32.5
q3 3 11 10t16 15t15 14t8 6q7 -4 9 -6l4 -4v-4q-4 -7 -13.5 -16t-16.5 -15q-22 -20 -51.5 -41.5t-61.5 -39t-66 -28.5t-65 -11q-8 0 -18.5 3t-19.5 8t-15 12.5t-6 17.5q0 14 13.5 34.5t35.5 43.5t49 47.5t53 46t49 38.5t37 26q37 25 79 50.5t86.5 46.5t91 34t92.5 13
q18 0 38 -5.5t37 -16t28 -26.5t11 -36q0 -21 -29.5 -60.5t-75 -88.5t-101 -102.5t-107.5 -101.5t-95 -86.5t-63 -57.5q-18 -18 -38.5 -38t-41.5 -34l-2 -2q7 -4 19.5 -7.5t26 -5.5t26 -3t21.5 -1q2 0 12.5 3t23.5 6.5t25.5 7t17.5 4.5q42 7 80 13.5t80 6.5q28 0 49 7.5
t41 7.5q10 0 19 -4.5t13 -12.5v-2q-3 -3 -11.5 -5t-18.5 -3t-19.5 -1.5t-13.5 -0.5q-5 0 -15.5 -3.5t-23 -8t-24 -8t-18.5 -5.5q-54 -13 -102.5 -16.5t-102.5 -3.5q-6 0 -24.5 -7t-44 -18t-54.5 -24.5t-55.5 -26t-47 -22.5t-29.5 -15q-18 -10 -36.5 -23t-37 -27t-37 -27.5
t-36.5 -22.5q-6 -3 -13.5 -7t-14.5 -4q-5 0 -10 4t-5 9zM202 -83q5 2 24.5 8.5t36.5 14.5q9 4 29 12.5t40 16.5t35 15t14 9l-2 5q-1 1 -8 3t-16.5 3.5t-19.5 4t-17 5.5l-6 2q-25 -26 -53.5 -49.5t-56.5 -46.5v-3zM242 119q0 -14 6 -26t15 -22.5t20 -18.5t20 -14
q3 0 26.5 19.5t51.5 43.5t51.5 45.5t27.5 24.5l29 27q16 12 34 30l4 4l-2 1q-8 3 -15 3.5t-15 0.5h-34q-23 0 -60 -7t-72.5 -21.5t-61 -37t-25.5 -52.5zM637 33q-40 0 -77.5 -6t-76.5 -15q39 2 77.5 7.5t76.5 13.5z" />
    <glyph glyph-name="uni0061" unicode="a" horiz-adv-x="208" 
d="M71 228q-20 -26 -39 -41t-35 -15q-11 0 -18.5 9t-7.5 28q0 14 8 30.5t20 31.5t26 25t27 10q8 0 18.5 -5t15.5 -12q6 5 11.5 14t12 17.5t14 15t15.5 6.5q7 0 8.5 -3t1.5 -5q0 -3 -8 -15.5t-17.5 -28.5t-17.5 -34t-8 -33q0 -8 1.5 -16.5t11.5 -7.5q15 2 33.5 15.5t35.5 29
t29.5 28t15.5 11.5q4 -3 4 -5.5t-1 -3.5q-6 -6 -19 -21.5t-29 -31.5t-34 -28.5t-34 -12.5h-4q-13 2 -23 8.5t-14 39.5zM79 273q1 2 -3.5 5t-11.5 4q-5 0 -7.5 -0.5t-7.5 -3.5q-11 -7 -23.5 -18.5t-21 -23t-11.5 -22.5t4 -18l1 -1q8 0 20.5 9.5t25 22.5t22.5 26t13 20z" />
    <glyph glyph-name="uni0062" unicode="b" horiz-adv-x="190" 
d="M145 651q2 4 7 12t11 16.5t12 14.5t11 6q3 0 7.5 -1.5t8 -6t5 -12.5t-3.5 -22q-14 -41 -32.5 -80.5t-38.5 -79t-40.5 -81t-38.5 -86.5q-3 -9 -5.5 -14.5t-5 -10.5t-4.5 -12t-5 -18l-4 -15q-1 -4 6 2.5t17.5 15.5t22.5 17t22 8q12 0 22.5 -7.5t10.5 -21.5q0 -8 -4 -14.5
t-8 -12.5q11 5 24 11t25 11q7 3 21 10t22 7q2 -3 -5 -9t-18 -13t-23 -13.5t-20 -10.5q-22 -12 -38.5 -26t-30.5 -31l-12 -16t-18.5 -25t-18 -23t-11.5 -10q-4 0 -7 5.5t-3 10.5q0 10 11 20.5t13 20.5q9 9 25 25.5t30 34t21.5 33.5t-0.5 24q-3 3 -7 3q-9 0 -21.5 -9.5
t-25.5 -25t-25 -34.5t-18 -38q-3 -9 -9.5 -25t-11.5 -21l-6 -1q-9 4 -9 16v3q3 10 7.5 30t8.5 31q3 11 9 42.5t21.5 85t45.5 130.5t81 180zM64 397v-2q4 5 15 25t24.5 47.5t28.5 59.5t27.5 60t20.5 48.5t8 26.5q-6 -2 -17.5 -21t-25.5 -46t-28.5 -59t-26 -60.5t-19 -50.5
t-7.5 -28z" />
    <glyph glyph-name="uni0063" unicode="c" horiz-adv-x="128" 
d="M81 343q8 0 14.5 -5.5t6.5 -12.5q0 -6 -2 -6t-4.5 2.5t-7.5 2.5q-10 0 -30 -17.5t-40 -39.5t-35 -42t-15 -26t3 -6q5 0 20.5 3.5t23.5 9.5q2 2 8.5 3.5t10.5 3.5q27 15 47.5 28.5t40.5 35.5q4 5 8 8.5t6 3.5q6 0 6 -9q0 -2 -2.5 -6.5t-6.5 -8.5q-51 -53 -90.5 -72
t-71.5 -19q-12 0 -19.5 5.5t-7.5 14.5q0 17 16.5 42.5t39 49t45.5 40.5t36 17z" />
    <glyph glyph-name="uni0064" unicode="d" horiz-adv-x="247" 
d="M222 227q19 24 28.5 44t14.5 20t4.5 -4t-2.5 -9q-10 -22 -30.5 -52t-45 -57t-48.5 -45.5t-40 -18.5q-22 0 -22 33q0 15 5 36.5t12.5 44t16 44.5t14.5 38l-5 -6q-10 -13 -24.5 -30.5t-31 -33t-33.5 -26t-34 -10.5q-4 0 -9 1t-9 5.5t-5.5 12.5t1.5 22q10 42 27 57t46 23
q10 2 14 2q10 0 17 -2t13 -2q8 0 17.5 7.5t25.5 30.5q4 6 20 34t33.5 60t32 58.5t14.5 30.5q2 10 8 16q11 11 12 20t12 9q7 0 8.5 -3.5t-0.5 -8.5q-4 -9 -13 -30t-23 -44q-23 -37 -43.5 -78.5t-37.5 -82t-30 -79t-21 -70.5q-3 -11 -5.5 -24t-2.5 -18v-10t2 -8h2
q14 0 30.5 11.5t32.5 28t29.5 34t22.5 29.5zM87 294l-6 1q-36 0 -54.5 -17t-27.5 -51l-1 -5q6 -1 17 5.5t23.5 17t25.5 23.5t23 26z" />
    <glyph glyph-name="uni0065" unicode="e" 
d="M72 335q6 0 11 -5t5 -11q0 -7 -6 -19.5t-17 -25.5t-25.5 -24t-31.5 -15q-6 -2 -12.5 -11t-6.5 -17q0 -9 14 -9q17 0 33 6t32 15t30 20t26 21q11 10 17.5 16.5t11.5 6.5q7 0 4 -5q-8 -14 -27.5 -32t-43 -34t-47 -27t-38.5 -11q-12 0 -21.5 11t-9.5 25q0 13 10 34.5
t25.5 41.5t33.5 34.5t33 14.5zM6 250q7 0 18 7t21.5 17.5t18.5 20.5t8 16q-6 2 -17 -7.5t-22 -21.5q-12 -14 -27 -32z" />
    <glyph glyph-name="uni0066" unicode="f" horiz-adv-x="146" 
d="M17 318q13 32 33.5 78.5t43 89t43.5 73t34 30.5q18 0 14 -16q-5 -26 -16 -55t-25.5 -57.5t-29.5 -54.5t-29 -46q-13 -19 -29 -39t-35 -56q-2 -4 -5.5 -12t-6.5 -16t-5 -14.5t-2 -8.5l23 11q29 14 48 24t47 27q4 2 10.5 7.5t13.5 11t13.5 10t9.5 4.5q10 0 7 -6
q-7 -11 -31.5 -28t-53 -33.5t-54.5 -30t-35 -18.5q-7 -3 -17 -28.5t-19.5 -58t-16 -63.5t-6.5 -45q0 -6 -4.5 -16.5t-11.5 -10.5q-2 0 -3.5 4t-2 9.5t-1 10.5t-0.5 7q0 23 7.5 52t16 55t16 45.5t7.5 23.5l-27 -11q-31 -10 -51 -19t-49 -14q-4 0 -11.5 2t-7.5 7l10 4l4 -1
q2 -1 10.5 1.5t20.5 6.5q21 7 43 16.5t60 27.5q3 4 4.5 10t6 18.5t13.5 34.5t26 57zM62 362q9 9 14.5 16.5t12.5 18.5q13 21 27.5 49t26.5 54.5t19 45.5t5 20l-3 -4q-1 -1 -14.5 -25.5t-30.5 -57t-33.5 -65.5t-23.5 -52z" />
    <glyph glyph-name="uni0067" unicode="g" horiz-adv-x="222" 
d="M67 320q14 -4 18 -13t3 -14q-7 0 -9.5 3t-10.5 5q-10 0 -17.5 -2t-14.5 -10q-4 -4 -8.5 -12.5t-7 -17.5t-2 -17t6.5 -10t8 -2q10 0 27 11t33.5 26t29.5 30.5t14 24.5q2 7 3.5 9t6.5 4h3q2 0 3.5 -2t1 -10t-5 -24.5t-15.5 -45.5l-34 -90q-5 -11 -3 -11q1 0 7 7q8 9 27 29
t40 41t38.5 37.5t22.5 19.5h5q2 0 5 -1t3 -3q0 -3 -3.5 -5t-7.5 -4q-6 -2 -25 -21.5t-41.5 -44.5t-44 -48.5t-30.5 -34.5q-10 -12 -15 -21t-10.5 -23.5t-15.5 -38t-31 -64.5q-30 -60 -53 -79t-36 -19q-8 0 -12 3t-5 6q-2 8 -2 19.5t5 28.5q4 12 13.5 29.5t13.5 22.5
q23 31 41.5 48.5t34.5 34.5q18 20 23.5 28t10.5 14t13 24.5t15.5 39.5t13.5 38.5t7 21.5t3.5 10.5l5 13t4 11l1.5 4.5q-1 0 -9.5 -11.5t-24.5 -26.5q-14 -11 -27 -19t-31 -8q-24 4 -27 38q-1 17 4 29t13 22q7 10 19 15.5t23 5.5q6 0 9 -1zM7 -6q2 4 7 15.5l10 23t8.5 20
t2.5 7.5q-3 -3 -14.5 -13t-26.5 -26t-30.5 -37.5t-26.5 -46.5q-8 -17 -7.5 -29t8.5 -12q9 0 27 22t42 76z" />
    <glyph glyph-name="uni0068" unicode="h" horiz-adv-x="194" 
d="M8 303q6 15 17.5 40.5t26 55t31 59.5t31.5 54.5t27.5 40t19.5 15.5q6 0 9.5 -5t3.5 -10q0 -19 -17.5 -54t-40.5 -73.5t-45.5 -73.5t-33.5 -54q-4 -7 -10.5 -21t-13 -29.5t-12 -30t-6.5 -22.5q5 7 11 16t12.5 17t14 13.5t16.5 5.5q7 0 12 -5.5t5 -12.5q0 -17 -10 -34.5
t-10 -35.5q0 -2 1.5 -5.5t5.5 -3.5q11 0 30 19t40.5 42.5t42 45t33.5 27.5q8 4 11 4q5 0 6 -4q2 -5 -1.5 -8t-7.5 -5q-15 -6 -35 -29t-42 -48t-42.5 -45t-36.5 -20q-11 0 -18.5 7t-7.5 19q0 14 6.5 31t11.5 30h-3q-4 0 -13 -12t-19.5 -30t-20 -39t-13.5 -40q0 -2 -2.5 -11
t-4.5 -19.5t-4 -19.5t-2 -12t-0.5 -9.5t1.5 -8.5l-2 -10q-2 -5 -4 -14.5t-9 -9.5q-5 0 -8 4.5t-4.5 10.5t-1.5 12v10q0 9 4.5 31.5t11.5 51t15.5 60.5t16.5 60.5t15.5 50.5t11.5 31zM76 393l-1 -7q5 6 19.5 30.5t29 51.5t25.5 48.5t9 22.5q-4 2 -15 -16t-24 -43t-25 -50
t-18 -37z" />
    <glyph glyph-name="uni0069" unicode="i" horiz-adv-x="89" 
d="M-21 204q-1 9 3 26t10 34.5t14 31t15 13.5q5 1 9.5 -2.5t4.5 -8.5q0 -2 -5.5 -11.5t-12.5 -23t-12.5 -29t-4.5 -29.5q1 -2 2 -6.5t6 -2.5q15 6 27 17t22.5 23.5t20 26t19.5 24.5q-6 -19 -17.5 -38t-25 -34.5t-27.5 -25.5t-25 -11q-12 0 -17 7.5t-6 18.5zM31 346q0 7 3 12
t11 5q5 0 7 -3.5t2 -7.5q0 -5 -4.5 -10.5t-9.5 -4.5q-5 0 -7 3t-2 6z" />
    <glyph glyph-name="uni006A" unicode="j" horiz-adv-x="125" 
d="M-81 107q15 17 28.5 40.5t24.5 50t19 53t13 47.5q2 8 4 15.5t2 15.5q0 11 2.5 14t13.5 3q8 -1 10 -5t1 -12q-5 -34 -19 -79.5t-30 -81.5q7 8 28 25.5t44.5 37t44.5 36.5t29 23q5 5 13 5q3 -4 -1 -8t-12 -11q-13 -12 -32 -29t-40.5 -36t-42 -38.5t-36.5 -35.5
q-4 -6 -11 -17t-15 -28q-5 -9 -16 -30t-26.5 -46.5t-34.5 -53t-38.5 -50t-38.5 -37.5t-35 -15q-20 -1 -22 13t9 34q6 11 21 31.5t37 47t49 57.5t57 64zM-70 94q1 3 -3 -0.5t-10 -9.5t-12.5 -13.5t-9.5 -11.5q-6 -7 -27.5 -33.5t-44 -56t-39.5 -53.5t-14 -25q12 0 28 13.5
t33 34t34 45.5t30.5 47.5t23 40t11.5 22.5zM41 420q-3 -5 -7.5 -12t-11.5 -7q-4 0 -6.5 3t-2.5 6q0 5 4 12.5t10 7.5q11 0 14 -10z" />
    <glyph glyph-name="uni006B" unicode="k" horiz-adv-x="164" 
d="M156 636q4 5 14.5 12t16.5 7q13 0 18 -7t6 -17l1 -18q0 -33 -13.5 -71t-34.5 -75.5t-45.5 -70.5t-46.5 -55q-12 -12 -19 -20.5t-18 -20.5q-3 -3 -8 -12.5t-5 -14.5q8 4 20 13t25 18.5t24.5 18t19.5 11.5q3 2 6 -1l5 -5l1 -3q2 -4 -16 -16t-40 -27.5t-41.5 -33
t-21.5 -33.5q-1 -5 2.5 -6t8.5 -1h7q25 2 55 10.5t50 21.5q28 17 35 28t15 16q8 -5 0 -15.5t-18 -19.5q-11 -10 -28 -20.5t-36.5 -19t-39.5 -13.5t-37 -5q-5 0 -8.5 0.5t-7.5 1.5q-5 -17 -6.5 -34t-1.5 -34q0 -1 0.5 -8.5t-0.5 -8.5q-2 -12 -2 -21t-6 -20q-5 0 -9 3t-4 8
q0 17 0.5 35t1.5 35q1 11 2.5 21.5t2.5 21.5q2 10 2 15q-1 2 -2.5 5.5t-1.5 5.5q0 8 4 14.5t7 13.5q6 14 9 29.5t8 29.5q10 32 28 77.5t39.5 92.5t43 90.5t39.5 71.5zM189 633q-5 -3 -18 -25t-29 -53t-33.5 -67.5t-32.5 -69t-25 -57.5t-11 -33q21 21 33 35t25 32t29.5 46
t31 58t24.5 60t10 53q0 7 -0.5 12t-3.5 9z" />
    <glyph glyph-name="uni006C" unicode="l" horiz-adv-x="152" 
d="M-2 78q11 0 27.5 15.5t33.5 37t33.5 45.5t27.5 42q15 24 23 36t20 29q4 7 10 7q7 0 3 -7q-11 -24 -24 -44t-22 -34q-10 -16 -26.5 -41t-35.5 -49.5t-38.5 -43t-34.5 -21.5q-14 0 -20 7.5t-9 20.5q-5 26 -2.5 54t8.5 54q9 44 22 86.5t27 84.5q8 21 25.5 65t38.5 91.5
t42 88.5t36 56q3 3 8.5 7t8.5 3q8 -2 11.5 -8t5.5 -16q1 -5 0 -15t-2 -15q-7 -63 -36 -127t-65 -117q-7 -10 -18 -23l-22 -26t-20 -25.5t-12 -22.5q-5 -16 -14 -48.5t-15.5 -65t-7 -57t12.5 -24.5zM187 636q-3 1 -12.5 -13t-21.5 -34.5t-24 -43.5t-20 -40
q-15 -33 -28.5 -64.5t-24.5 -56.5t-17 -41t-6 -18q1 -6 22.5 18t48 68.5t51 103t32.5 121.5z" />
    <glyph glyph-name="uni006D" unicode="m" horiz-adv-x="269" 
d="M130 276q2 -1 9.5 8t17 20.5t19.5 21t18 9.5q4 0 9.5 -1.5t9.5 -9.5q3 -5 5.5 -15t6 -20t9.5 -17.5t15 -7.5t18 8t14 15q2 1 5 1q6 0 4 -4q-4 -11 -18 -23.5t-27 -12.5q-5 0 -9 1.5t-6 2.5q-15 7 -21.5 18t-9 21.5t-4 18t-6.5 7.5q-8 0 -15.5 -10.5t-16 -23t-19 -23
t-24.5 -10.5q-6 0 -8.5 5t-3 11.5t0 13t0.5 10.5q0 8 1 15t-1 12q-2 4 -14.5 -16.5t-29 -47.5t-33.5 -51t-28 -27q-11 0 -14.5 7t-3.5 17q0 9 7.5 32t18 48t22.5 44t21 19q5 0 9 -3.5t4 -8.5q-10 -11 -20.5 -27.5t-18.5 -34t-13.5 -34.5t-6.5 -29l1 -1h2q11 11 24.5 31.5
t27 42.5t25.5 40t20 24q4 4 11 4q9 0 13.5 -6t4.5 -14q0 -3 -1.5 -10.5t-2.5 -15.5t-1 -15t3 -9z" />
    <glyph glyph-name="uni006E" unicode="n" horiz-adv-x="179" 
d="M2 204v-2q0 -6 8.5 12.5t21.5 44t27 48.5t24 25q8 0 14 -5.5t7 -13.5q1 -9 3 -21t5.5 -22.5t10 -18t17.5 -7.5t19 7t13.5 15t8.5 15.5t4 7.5q8 2 6 -5q-6 -21 -20.5 -37t-30.5 -17q-25 -1 -35 15t-15 36q-2 6 -4 17t-8 11q-5 -3 -13 -17t-19 -37q-4 -7 -10 -21t-13 -27
t-15 -23t-15 -10q-6 0 -11 4t-5 15t7.5 35.5t17 50t19 45t13.5 20.5q3 1 9.5 -2t6.5 -8q0 -3 -7.5 -20.5t-16.5 -39t-16.5 -41.5t-7.5 -29z" />
    <glyph glyph-name="uni006F" unicode="o" horiz-adv-x="148" 
d="M164 269q-6 -8 -16 -16t-24 -13q-6 -2 -11 -3t-10 -1q-11 0 -25 6q-15 -25 -31 -40.5t-48 -15.5q-12 1 -20 8t-8 24q0 15 6.5 31t17 30t23.5 24t25 13q2 0 4.5 0.5t4.5 0.5q12 0 23 -8q14 -11 12 -20.5t-4 -29.5q8 -2 19 -2h10q19 2 27 8t16 14q9 9 13 9t3 -5.5t-7 -13.5
zM0 223q0 -5 3 -10t8 -5q3 0 11 4q19 10 30 24.5t9 22.5q-2 6 3.5 15t2.5 12q-4 5 -12 5t-17.5 -6t-18 -15.5t-14 -21.5t-5.5 -25z" />
    <glyph glyph-name="uni0070" unicode="p" 
d="M150 272q-7 -5 -20 -11t-27 -11.5t-26 -10t-15 -6.5q-4 -3 -11 -12.5t-15 -20t-17 -19t-18 -8.5q-6 0 -10.5 3.5t-4.5 9.5q0 9 7.5 16.5t17 15t19.5 13.5t16 12q5 5 8 11t6 11q2 3 4 8t2 8q0 7 -5 7q-12 0 -21.5 -10t-17.5 -18q-7 -6 -18.5 -25.5t-21.5 -42.5
q-8 -18 -18.5 -41.5t-21 -49.5t-18 -52t-9.5 -49q-1 -8 0 -13t1 -9q0 -9 -7 -9q-6 0 -10.5 11.5t-2.5 22.5q11 64 26.5 105t32.5 78q10 21 20 44.5t21 42.5q3 6 9.5 20.5t13 31t12.5 32t9 22.5q2 5 7 12t10 7q10 0 10 -9q0 -3 -6.5 -17.5t-14.5 -32t-14.5 -32t-6.5 -16.5
q7 2 15.5 6t16.5 4q9 0 18.5 -5.5t8.5 -16.5q-1 -8 -5.5 -14.5t-6.5 -11.5q1 -1 10 1.5t20.5 6t23.5 8.5t18 9q8 5 12 5q3 0 2 -3t-8 -8z" />
    <glyph glyph-name="uni0071" unicode="q" horiz-adv-x="224" 
d="M-27 -4q-11 -37 -13 -60t1 -35.5t9 -17t12 -4.5h2q15 2 37.5 30t48 69.5t52 90t48.5 92.5t37 76t19 41q7 16 12 16q3 0 3.5 -5t-1.5 -10q-4 -10 -19.5 -44t-38 -79.5t-49.5 -96.5t-54 -94t-52 -71.5t-43 -30.5h-4q-23 0 -34.5 28.5t4.5 99.5q14 60 40 118t50 114
q-5 -5 -15 -10t-18 -5q-11 0 -22 7t-11 20q0 9 7 21.5t18 24.5t22.5 20.5t20.5 8.5q11 0 18 -5t9 -7l2 -2q4 5 6.5 9.5t7.5 6.5q4 2 7 2q9 -4 7 -16.5t-14 -38.5q-10 -22 -25.5 -53.5t-31.5 -66.5t-30.5 -72t-24.5 -71zM2 224q5 0 12 3t13 7.5t11 9.5l7 7q6 6 11.5 15
t7.5 13l-2 2q-5 5 -11 5q-7 1 -18 -6.5t-20 -18t-13.5 -21t2.5 -16.5z" />
    <glyph glyph-name="uni0072" unicode="r" horiz-adv-x="159" 
d="M169 280q-3 -6 -14 -13t-19 -7q-17 0 -25 7t-12.5 15.5t-7.5 15t-9 6.5q-8 -1 -24.5 -21t-27.5 -45q-4 -8 -12.5 -27t-13.5 -27q-2 -5 -5 -11.5t-9 -5.5q-7 1 -8.5 5.5t-0.5 14.5q0 5 4.5 21t6.5 25q3 12 4 19t2.5 13t3.5 13t6 18q3 8 5.5 17.5t6.5 17.5q3 5 5 7t8 2
q4 0 8 -2t4 -6q0 -3 -3.5 -12.5t-8.5 -20t-8.5 -20t-3.5 -11.5q3 -1 10.5 8.5t16.5 21.5t18.5 22t17.5 10q12 0 16 -8.5t7.5 -19.5t9 -20t19.5 -9t25 14h3q4 0 5.5 -2.5t-0.5 -4.5z" />
    <glyph glyph-name="uni0073" unicode="s" horiz-adv-x="91" 
d="M43 296h-3q-9 0 -13.5 -9t-5.5 -21t-1 -25v-22v-7q4 3 17 16l27.5 27.5t27 26t15.5 12.5t4 -1.5t-1 -4.5q-3 -5 -17.5 -19.5t-31 -30.5t-29.5 -29.5t-13 -17.5q-1 -10 -6 -30t-13.5 -40t-21 -35.5t-28.5 -15.5q-8 0 -15 6.5t-7 14.5q0 15 7 30t17 29t22 26t23 22
q2 2 2.5 11t0 20.5l-1 23t-0.5 17.5q1 18 13.5 35t32.5 17q7 -1 10 -5.5t2 -9.5t-4.5 -8.5t-8.5 -2.5zM-59 87q7 -1 14.5 8.5t14.5 22.5t12.5 27t7.5 21l2 8q-14 -13 -25 -27.5t-18 -26.5t-9 -21t1 -12z" />
    <glyph glyph-name="uni0074" unicode="t" horiz-adv-x="175" 
d="M84 482q1 2 -9.5 -3t-39 -15.5t-79 -28t-128.5 -41.5q-3 -1 -8 5.5t7 10.5q56 18 98 33t73 27t53.5 21.5t39.5 15.5q5 4 17.5 31.5t27.5 59.5t30.5 58t26.5 27q5 0 8.5 -1.5t3.5 -7.5q0 -3 -8 -16.5t-13 -20.5q-15 -25 -29 -58t-25 -60l15 4q29 8 75 22.5t127 43.5
q6 2 16.5 6t21.5 8l22 8t18 5q2 0 3.5 0.5t3.5 0.5q6 0 6 -3q0 -7 -4.5 -11.5t-9.5 -6.5q-39 -15 -74.5 -28t-70.5 -25t-71.5 -23.5t-77.5 -23.5q-4 -2 -5 -3.5t-6 -8.5q-11 -17 -26.5 -52t-32 -78t-32.5 -90.5t-28.5 -91t-20 -78.5t-6.5 -54q0 -5 4 -12.5t9 -7.5
q27 18 52.5 45.5t48 58.5t41.5 63t34 58q8 14 11.5 21.5t5.5 11.5l3 6t2 5q2 -13 -8.5 -39t-29 -58.5t-42 -66.5t-46.5 -61.5t-44 -45.5t-33 -18q-35 0 -32 41q4 47 19 108.5t35.5 124t42.5 118t38 90.5z" />
    <glyph glyph-name="uni0075" unicode="u" horiz-adv-x="216" 
d="M237 281q-1 -3 -5 -6t-9 -8q-19 -19 -38 -32t-36 -13q-28 0 -38.5 15.5t-9.5 50.5q-3 -3 -12.5 -18t-21.5 -31.5t-25 -30t-24 -13.5t-20.5 3.5t-11.5 20.5q-1 8 3 23.5t10 31.5t12.5 27.5t10.5 11.5q15 0 11 -14q-2 -7 -6 -17t-8 -21.5t-7 -22.5t-3 -20q0 -5 4 -5
q9 0 24 17t31 39t30 43t21 29q6 0 12 -1t4 -9q-3 -10 -7 -24.5t-5 -26.5q-1 -11 2.5 -25t17.5 -14q17 0 30.5 7t24.5 16t19 16.5t13 7.5q2 0 5 -2.5t2 -4.5z" />
    <glyph glyph-name="uni0076" unicode="v" horiz-adv-x="134" 
d="M24 343q10 0 10 -10q-8 -34 -11 -67t-2 -65q0 -2 0.5 -5t3.5 -3q4 0 8.5 12.5t6.5 15.5q4 11 16.5 42t26 64.5t25.5 61.5t16 33q4 6 8 6q2 0 5.5 -0.5t3.5 -3.5q0 -5 -3 -15.5t-7.5 -22t-9 -22t-6.5 -15.5q-16 -37 -29 -71.5t-27 -71.5q-1 -4 -4.5 -10.5t-8 -13
t-10 -11.5t-12.5 -5q-6 0 -10 4.5t-6 11.5t-2.5 14t-0.5 11q-1 25 1 49.5t5 49.5q1 7 2 14.5t3 14.5q2 8 8 8z" />
    <glyph glyph-name="uni0077" unicode="w" horiz-adv-x="261" 
d="M19 249q2 -3 10.5 3t18 15t18.5 18l13 13q3 3 8.5 6.5t9.5 3.5t9.5 -2.5t5.5 -7.5q0 -11 -2.5 -22t-4.5 -30q-3 -28 5.5 -42.5t19.5 -14.5q20 0 41 26t38 61t28 70t11 52q0 14 -4 19t-4 10q0 6 7 6q19 -9 19 -31q0 -21 -10 -59t-28 -75.5t-42.5 -65.5t-52.5 -28
q-24 0 -33.5 14.5t-11.5 34.5q-2 17 0.5 33t0.5 15q-2 0 -8 -7t-14.5 -15.5t-19 -15.5t-20.5 -8q-24 0 -25 22q-2 17 2.5 29l7.5 20q2 6 7.5 15.5t11.5 19t12 16t10 6.5q7 -1 7 -3t-3 -8q-2 -5 -9.5 -14.5t-15.5 -23.5q-1 -3 -4.5 -10.5t-6.5 -16.5t-4 -17t2 -11z" />
    <glyph glyph-name="uni0078" unicode="x" horiz-adv-x="166" 
d="M-47 77q-2 -1 -5 -1q-4 0 -6 2t-3 4q-2 7 3 21.5t13 31t16.5 31.5t13.5 23q6 10 13 22t13 21q3 5 3 8t-2 7q-6 14 -8 39.5t-2 41.5q0 5 5 5t7.5 -5.5t2.5 -10.5q0 -6 0.5 -15t1.5 -18.5t3 -18t5 -11.5q4 6 15 20.5t23.5 29.5t24 27t17.5 12q3 0 8 -2t3 -5
q-3 -5 -15.5 -20t-26 -32t-24 -31.5t-11.5 -19.5q12 -23 38 -24q20 -1 37.5 13.5t27.5 24.5q4 4 13 14.5t12 18.5q2 1 5 1q9 0 3 -11q-16 -29 -44.5 -52t-54.5 -23q-19 0 -27.5 5.5t-21.5 19.5q-15 -21 -35.5 -53t-40.5 -90z" />
    <glyph glyph-name="uni0079" unicode="y" horiz-adv-x="179" 
d="M194 283q-3 -2 -19.5 -15.5l-38.5 -31.5l-37 -37q-16 -16 -30.5 -32t-22.5 -36q-5 -13 -12.5 -30.5t-15 -35.5t-15 -35.5t-13.5 -29.5q-7 -15 -22 -47t-38 -62q-10 -13 -21 -22t-22 -9q-16 0 -12 32q1 11 5 24t9 25t9.5 21.5t7.5 14.5l27.5 44t25.5 38.5t27 37.5t32 42
q4 5 9 19t10.5 30t10.5 31.5t9 23.5l4 8q-2 -1 -9 -9.5t-16 -19t-20 -19t-20 -8.5q-10 0 -13 11t-1 19q1 5 6 18.5t11 27t12.5 24t9.5 10.5q5 0 8.5 -0.5t3.5 -4.5q0 -3 -3 -10.5t-7 -17l-8 -19t-7 -16.5q-5 -11 -4.5 -17t3.5 -6q5 3 14 12t19.5 20t20 22.5t15.5 20.5
q8 11 16 26t15 28q4 7 9 7q8 0 11.5 -2t3.5 -10q0 -2 -2 -6l-3 -6q-10 -17 -20 -39t-18.5 -43.5t-14.5 -38.5t-8 -24l3 4q6 7 23 25t37.5 36.5t38.5 32.5t25 14q4 0 5.5 -4t-3.5 -6zM14 109q-10 -13 -30 -38.5t-40.5 -57t-36 -65t-17.5 -62.5q0 -6 2 -6q5 0 22 28.5
t36.5 66.5t38 76.5t25.5 57.5z" />
    <glyph glyph-name="uni007A" unicode="z" horiz-adv-x="211" 
d="M233 297q-25 -12 -41 -21t-25.5 -15t-14 -10t-7.5 -6q-4 -2 -6 -15.5t-21 -37.5q-15 -20 -37.5 -41.5t-45.5 -39t-44 -29t-33 -11.5t-12 13q0 10 13 25.5t33 33.5t43 36.5t43 34t34 25.5t15 12q2 2 0.5 7.5t-5 11t-9 10t-13.5 4.5h-2q-16 -1 -30.5 -7.5t-27 -13.5
t-23.5 -13t-20 -7q-5 0 -10.5 2.5t-5.5 8.5t11.5 22t26.5 33t29 32.5t19 20.5l-32 -23q-3 -1 -9.5 -6.5t-13.5 -10.5t-13.5 -9.5t-7.5 -4.5q-5 0 -7.5 4t-2.5 8l18 12q5 3 18.5 12t28 18.5t27 17t15.5 7.5q8 0 12.5 -5.5t4.5 -8.5q0 -4 -1.5 -9.5t-11.5 -14.5
q-9 -8 -21.5 -19.5t-23.5 -23t-19 -20.5t-8 -13q0 -1 7 3t18.5 9t25.5 9.5t29 4.5q30 0 41 -31l2 -7q7 4 18.5 11t24 14t24.5 12.5t20 6.5q6 1 6.5 -2.5t-3.5 -5.5zM127 237q-7 -5 -28 -23t-44.5 -38.5t-44.5 -39.5t-28 -26q-5 -5 -8.5 -10.5t-2.5 -6.5q2 -3 24.5 13.5
t50 40.5t51.5 49.5t30 40.5z" />
  </font>
</defs>
</svg>
